{
.appVersion = "1286";
copyright = "© Henrik Kongsvoll 2020";
date = "2020-03-14 22:14:38 +0000";
designer = "Henrik Kongsvoll";
designerURL = "https://henrikkongsvoll.no";
familyName = "Henke Henke Henke Henke";
fontMaster = (
{
alignmentZones = (
"{1628, 0}",
"{1440, 24}",
"{1360, 24}",
"{1024, 24}",
"{0, -24}",
"{-420, 0}"
);
ascender = 1628;
capHeight = 1440;
descender = -420;
guideLines = (
{
alignment = center;
angle = 90;
position = "{680, 711}";
}
);
iconName = Light;
id = "4B6FBC9C-F998-43BC-A943-BECCA28E0CA2";
xHeight = 1024;
}
);
glyphs = (
{
glyphname = A;
lastChange = "2020-03-18 15:34:40 +0000";
layers = (
{
layerId = "4B6FBC9C-F998-43BC-A943-BECCA28E0CA2";
paths = (
{
closed = 1;
nodes = (
"246 0 LINE",
"320 194 LINE SMOOTH",
"363 309 OFFCURVE",
"371 385 OFFCURVE",
"342 414 CURVE SMOOTH",
"325 431 OFFCURVE",
"324 460 OFFCURVE",
"342 477 CURVE SMOOTH",
"359 493 OFFCURVE",
"388 494 OFFCURVE",
"404 477 CURVE SMOOTH",
"444 436 OFFCURVE",
"520 414 OFFCURVE",
"624 414 CURVE SMOOTH",
"828 414 LINE SMOOTH",
"932 414 OFFCURVE",
"1009 435 OFFCURVE",
"1048 477 CURVE SMOOTH",
"1064 494 OFFCURVE",
"1093 493 OFFCURVE",
"1110 477 CURVE SMOOTH",
"1128 460 OFFCURVE",
"1127 431 OFFCURVE",
"1110 414 CURVE SMOOTH",
"1081 385 OFFCURVE",
"1088 309 OFFCURVE",
"1132 194 CURVE SMOOTH",
"1206 0 LINE",
"1411 0 LINE",
"835 1440 LINE",
"617 1440 LINE",
"41 0 LINE"
);
},
{
closed = 1;
nodes = (
"386 528 OFFCURVE",
"385 557 OFFCURVE",
"403 574 CURVE SMOOTH",
"466 634 OFFCURVE",
"517 711 OFFCURVE",
"550 797 CURVE SMOOTH",
"614 964 LINE SMOOTH",
"648 1053 OFFCURVE",
"666 1174 OFFCURVE",
"666 1315 CURVE SMOOTH",
"666 1348 OFFCURVE",
"693 1375 OFFCURVE",
"726 1375 CURVE SMOOTH",
"759 1375 OFFCURVE",
"785 1348 OFFCURVE",
"785 1315 CURVE SMOOTH",
"785 1174 OFFCURVE",
"803 1053 OFFCURVE",
"837 964 CURVE SMOOTH",
"901 797 LINE SMOOTH",
"934 711 OFFCURVE",
"985 634 OFFCURVE",
"1048 574 CURVE SMOOTH",
"1066 557 OFFCURVE",
"1065 528 OFFCURVE",
"1048 511 CURVE SMOOTH",
"1031 494 OFFCURVE",
"1003 494 OFFCURVE",
"986 511 CURVE SMOOTH",
"945 552 OFFCURVE",
"869 574 OFFCURVE",
"767 574 CURVE SMOOTH",
"684 574 LINE SMOOTH",
"582 574 OFFCURVE",
"506 552 OFFCURVE",
"465 511 CURVE SMOOTH",
"448 494 OFFCURVE",
"420 494 OFFCURVE",
"403 511 CURVE SMOOTH"
);
}
);
width = 1456;
}
);
unicode = 0041;
},
{
glyphname = B;
lastChange = "2020-03-18 15:55:47 +0000";
layers = (
{
background = {
paths = (
{
closed = 1;
nodes = (
"606 649 LINE",
"768 649 OFFCURVE",
"1009 649 OFFCURVE",
"1009 403 CURVE SMOOTH",
"1009 160 OFFCURVE",
"776 160 OFFCURVE",
"606 160 CURVE SMOOTH",
"513 160 OFFCURVE",
"437 131 OFFCURVE",
"385 76 CURVE SMOOTH",
"362 51 OFFCURVE",
"325 54 OFFCURVE",
"301 76 CURVE SMOOTH",
"276 98 OFFCURVE",
"279 136 OFFCURVE",
"301 160 CURVE SMOOTH",
"357 219 OFFCURVE",
"386 295 OFFCURVE",
"386 380 CURVE SMOOTH",
"386 430 LINE",
"196 430 LINE",
"196 0 LINE",
"606 0 LINE SMOOTH",
"771 0 OFFCURVE",
"1209 2 OFFCURVE",
"1209 397 CURVE SMOOTH",
"1209 569 OFFCURVE",
"1126 698 OFFCURVE",
"914 737 CURVE",
"1072 773 OFFCURVE",
"1170 882 OFFCURVE",
"1170 1064 CURVE SMOOTH",
"1170 1440 OFFCURVE",
"801 1440 OFFCURVE",
"616 1440 CURVE SMOOTH",
"196 1440 LINE",
"196 1031 LINE",
"386 1031 LINE",
"386 1070 LINE SMOOTH",
"386 1149 OFFCURVE",
"357 1221 OFFCURVE",
"301 1280 CURVE SMOOTH",
"279 1303 OFFCURVE",
"276 1341 OFFCURVE",
"301 1364 CURVE SMOOTH",
"325 1386 OFFCURVE",
"362 1389 OFFCURVE",
"385 1364 CURVE SMOOTH",
"435 1309 OFFCURVE",
"511 1280 OFFCURVE",
"606 1280 CURVE SMOOTH",
"730 1280 OFFCURVE",
"976 1292 OFFCURVE",
"976 1048 CURVE SMOOTH",
"976 807 OFFCURVE",
"737 809 OFFCURVE",
"606 809 CURVE"
);
},
{
closed = 1;
nodes = (
"499 649 OFFCURVE",
"437 673 OFFCURVE",
"400 703 CURVE SMOOTH",
"388 713 OFFCURVE",
"375 725 OFFCURVE",
"356 725 CURVE SMOOTH",
"331 725 OFFCURVE",
"312 707 OFFCURVE",
"312 682 CURVE SMOOTH",
"312 662 OFFCURVE",
"324 649 OFFCURVE",
"334 637 CURVE SMOOTH",
"369 595 OFFCURVE",
"386 531 OFFCURVE",
"386 430 CURVE",
"196 430 LINE",
"196 1031 LINE",
"386 1031 LINE",
"386 930 OFFCURVE",
"369 863 OFFCURVE",
"334 821 CURVE SMOOTH",
"324 809 OFFCURVE",
"312 796 OFFCURVE",
"312 776 CURVE SMOOTH",
"312 751 OFFCURVE",
"331 733 OFFCURVE",
"356 733 CURVE SMOOTH",
"375 733 OFFCURVE",
"388 745 OFFCURVE",
"400 755 CURVE SMOOTH",
"437 785 OFFCURVE",
"499 809 OFFCURVE",
"610 809 CURVE",
"610 649 LINE"
);
},
{
closed = 0;
nodes = (
"531 443 LINE"
);
}
);
};
layerId = "4B6FBC9C-F998-43BC-A943-BECCA28E0CA2";
paths = (
{
closed = 1;
nodes = (
"606 0 LINE SMOOTH",
"771 0 OFFCURVE",
"1209 2 OFFCURVE",
"1209 397 CURVE SMOOTH",
"1209 569 OFFCURVE",
"1126 698 OFFCURVE",
"914 737 CURVE",
"1072 773 OFFCURVE",
"1170 882 OFFCURVE",
"1170 1064 CURVE SMOOTH",
"1170 1440 OFFCURVE",
"801 1440 OFFCURVE",
"616 1440 CURVE SMOOTH",
"196 1440 LINE",
"196 0 LINE"
);
},
{
closed = 0;
nodes = (
"531 443 LINE"
);
},
{
closed = 1;
nodes = (
"499 809 OFFCURVE",
"437 785 OFFCURVE",
"400 755 CURVE SMOOTH",
"388 745 OFFCURVE",
"375 733 OFFCURVE",
"356 733 CURVE SMOOTH",
"331 733 OFFCURVE",
"312 751 OFFCURVE",
"312 776 CURVE SMOOTH",
"312 796 OFFCURVE",
"324 809 OFFCURVE",
"334 821 CURVE SMOOTH",
"369 863 OFFCURVE",
"386 930 OFFCURVE",
"386 1031 CURVE SMOOTH",
"386 1070 LINE SMOOTH",
"386 1149 OFFCURVE",
"357 1221 OFFCURVE",
"301 1280 CURVE SMOOTH",
"279 1303 OFFCURVE",
"276 1341 OFFCURVE",
"301 1364 CURVE SMOOTH",
"325 1386 OFFCURVE",
"362 1389 OFFCURVE",
"385 1364 CURVE SMOOTH",
"435 1309 OFFCURVE",
"511 1280 OFFCURVE",
"606 1280 CURVE SMOOTH",
"730 1280 OFFCURVE",
"976 1292 OFFCURVE",
"976 1048 CURVE SMOOTH",
"976 807 OFFCURVE",
"737 809 OFFCURVE",
"610 809 CURVE SMOOTH"
);
},
{
closed = 1;
nodes = (
"768 649 OFFCURVE",
"1009 649 OFFCURVE",
"1009 403 CURVE SMOOTH",
"1009 160 OFFCURVE",
"776 160 OFFCURVE",
"606 160 CURVE SMOOTH",
"513 160 OFFCURVE",
"437 131 OFFCURVE",
"385 76 CURVE SMOOTH",
"362 51 OFFCURVE",
"325 54 OFFCURVE",
"301 76 CURVE SMOOTH",
"276 98 OFFCURVE",
"279 136 OFFCURVE",
"301 160 CURVE SMOOTH",
"357 219 OFFCURVE",
"386 295 OFFCURVE",
"386 380 CURVE SMOOTH",
"386 430 LINE SMOOTH",
"386 531 OFFCURVE",
"369 595 OFFCURVE",
"334 637 CURVE SMOOTH",
"324 649 OFFCURVE",
"312 662 OFFCURVE",
"312 682 CURVE SMOOTH",
"312 707 OFFCURVE",
"331 725 OFFCURVE",
"356 725 CURVE SMOOTH",
"375 725 OFFCURVE",
"388 713 OFFCURVE",
"400 703 CURVE SMOOTH",
"437 673 OFFCURVE",
"499 649 OFFCURVE",
"610 649 CURVE SMOOTH"
);
}
);
userData = {
LWTimeline = "H4sIAAAAAAAAE+1XTU8bMRD9K9aet8jfXnMsBbUSLRLQckCoSslCIkKCklAOKP+9M5sl7IwdVKSWHrq3+GXG9s7He+PH4mo+uK0Xxe75YzF5+L6oJ/DzoiyOT94Xu0q5srgbLEfr/y8ns0U9LHaX8/u6LKazYeNXeOmFFIefvuyLk89HR6cfi7IIQQF2dHCw9/X42z4ASssodIKYGEQDPLs2uPOR2CrthY9VF4vKimBad7SRQYsQDPULUlQVPRcxJb1NDm7+sJbcu5Iqwbzya4xvEFscY9Gu28XFqtwaPx28oJ+mQxTK+C5k8B4+OdK4ILQisTKVFzo6DpkqdQbYBp46RJ0jYTQuCg/h7kLaCm9jsqUMwnt2c4Bi4hyUSpytEkGTSBioAw7B/TLOVsMxgeTJSd3csZs6qNXMtYOvuKWSUIY5zErD3Rscs9OxDZBVBuHhmRw6ZbilhbpWRtHPdgK25CHzWjhqp51wNNpQOtzzpXrEhAXPtgAokjbCHFYyiaTxTlSOfAwmLOqkIJXUqXeDZ0tSKZoLrHylNf12bBKdFvq6nySpaew6hRXH/U3KDBhThZfo2kLkAWOth3apvzWIS2LrVHtXXiCZ+wcjE9uI99c0Jw0mbcX9Ea8ghR1TZE5MHzs9k1HsImaJvRaqtCttQuZN/xpaDtjlDEI+4M4XK5Chh/FwOQIhAouyuF/U8w+D5aDYfSwOz07HtzX84yrrLDR+2DFGR2liCf/tjerLm7vZeLrMWazK4mc9X56t936nwKNRu+jL4sfg8uZ6PrufDvGUXvs45nvt67WPJL7XvucL9dqX+Pfa17X8fe1bYZVuXmTnvpSluugfZhvrvyFOV4PJohtABzRkrclYskjbGJM6MVgnpPOtlCI4x29noJqCpRwRgPAM0yHfQNzZYEVRSwXhZsSIEOfBFo60tVtq60IGIJ2IDpZ35enJyHasvBtWM6l3z3a5+78R2ymZst1L9f3fzQjrqvl3k6nJNQbSUdcfGtCxLaFV/RP1dqt6PbB2LaH1vadTDUJAydwZSYKWVEM6bKpBetIptyGR8fkH6E6RDm2IMS0bzLKnuoFEy8daKOZkrH3V4zHasOPhyytXbXk8diz+8OMRb96qUt9kDfLmTYaxi8lys+inqKcNMlNUI+3teiP1ZN1LPPN/I4nvPmhe1PYMpeaIN0/RGTLPUf4WccjISEZstssSF7CMzG0RxIx0ZgS2JYmndYYl0nqnaz4NZ2bmLdN1Zg7PTOsvzPWMkTPvhC0viszbI32hbHnL5F496duIzJ/teiOEr3mRwSsZdH5eX87mw/H0emM/GSyWe6PB9Dor8qtfOd/AsvYcAAA=";
};
width = 1328;
}
);
unicode = 0042;
},
{
glyphname = C;
lastChange = "2020-03-18 15:35:06 +0000";
layers = (
{
layerId = "4B6FBC9C-F998-43BC-A943-BECCA28E0CA2";
paths = (
{
closed = 1;
nodes = (
"1073 -24 OFFCURVE",
"1293 185 OFFCURVE",
"1333 486 CURVE",
"1133 486 LINE",
"1104 271 OFFCURVE",
"975 136 OFFCURVE",
"755 136 CURVE SMOOTH",
"475 136 OFFCURVE",
"307 358 OFFCURVE",
"308 720 CURVE SMOOTH",
"307 1082 OFFCURVE",
"475 1304 OFFCURVE",
"755 1304 CURVE SMOOTH",
"969 1304 OFFCURVE",
"1100 1177 OFFCURVE",
"1126 971 CURVE",
"1324 971 LINE",
"1289 1288 OFFCURVE",
"1078 1464 OFFCURVE",
"755 1464 CURVE SMOOTH",
"364 1464 OFFCURVE",
"111 1168 OFFCURVE",
"112 720 CURVE SMOOTH",
"111 272 OFFCURVE",
"364 -24 OFFCURVE",
"755 -24 CURVE SMOOTH"
);
}
);
width = 1424;
}
);
unicode = 0043;
},
{
glyphname = D;
lastChange = "2020-03-18 15:35:29 +0000";
layers = (
{
layerId = "4B6FBC9C-F998-43BC-A943-BECCA28E0CA2";
paths = (
{
closed = 1;
nodes = (
"614 0 LINE SMOOTH",
"1074 0 OFFCURVE",
"1338 261 OFFCURVE",
"1338 736 CURVE SMOOTH",
"1338 1156 OFFCURVE",
"1131 1440 OFFCURVE",
"614 1440 CURVE SMOOTH",
"196 1440 LINE",
"196 0 LINE"
);
},
{
closed = 1;
nodes = (
"276 99 OFFCURVE",
"279 136 OFFCURVE",
"301 160 CURVE SMOOTH",
"353 215 OFFCURVE",
"386 300 OFFCURVE",
"386 379 CURVE SMOOTH",
"386 1061 LINE SMOOTH",
"386 1146 OFFCURVE",
"357 1221 OFFCURVE",
"301 1280 CURVE SMOOTH",
"279 1303 OFFCURVE",
"276 1340 OFFCURVE",
"301 1364 CURVE SMOOTH",
"325 1387 OFFCURVE",
"362 1389 OFFCURVE",
"385 1364 CURVE SMOOTH",
"435 1309 OFFCURVE",
"511 1280 OFFCURVE",
"606 1280 CURVE SMOOTH",
"760 1280 OFFCURVE",
"1138 1280 OFFCURVE",
"1138 729 CURVE SMOOTH",
"1138 160 OFFCURVE",
"734 160 OFFCURVE",
"606 160 CURVE SMOOTH",
"516 160 OFFCURVE",
"433 128 OFFCURVE",
"385 76 CURVE SMOOTH",
"362 51 OFFCURVE",
"325 54 OFFCURVE",
"301 76 CURVE SMOOTH"
);
}
);
width = 1440;
}
);
unicode = 0044;
},
{
glyphname = E;
lastChange = "2020-03-18 15:35:37 +0000";
layers = (
{
layerId = "4B6FBC9C-F998-43BC-A943-BECCA28E0CA2";
paths = (
{
closed = 1;
nodes = (
"362 51 OFFCURVE",
"325 54 OFFCURVE",
"301 76 CURVE SMOOTH",
"276 99 OFFCURVE",
"279 136 OFFCURVE",
"301 160 CURVE SMOOTH",
"354 217 OFFCURVE",
"386 300 OFFCURVE",
"386 380 CURVE SMOOTH",
"386 434 LINE SMOOTH",
"386 539 OFFCURVE",
"365 614 OFFCURVE",
"324 655 CURVE SMOOTH",
"307 672 OFFCURVE",
"307 700 OFFCURVE",
"324 717 CURVE SMOOTH",
"341 734 OFFCURVE",
"369 734 OFFCURVE",
"386 717 CURVE SMOOTH",
"427 676 OFFCURVE",
"502 655 OFFCURVE",
"606 655 CURVE SMOOTH",
"1056 655 LINE",
"1056 815 LINE",
"606 815 LINE SMOOTH",
"502 815 OFFCURVE",
"427 794 OFFCURVE",
"386 753 CURVE SMOOTH",
"369 736 OFFCURVE",
"341 736 OFFCURVE",
"324 753 CURVE SMOOTH",
"307 770 OFFCURVE",
"308 799 OFFCURVE",
"324 815 CURVE SMOOTH",
"365 856 OFFCURVE",
"386 931 OFFCURVE",
"386 1034 CURVE SMOOTH",
"386 1061 LINE SMOOTH",
"386 1146 OFFCURVE",
"357 1221 OFFCURVE",
"301 1280 CURVE SMOOTH",
"279 1303 OFFCURVE",
"276 1341 OFFCURVE",
"301 1364 CURVE SMOOTH",
"325 1387 OFFCURVE",
"362 1389 OFFCURVE",
"385 1364 CURVE SMOOTH",
"435 1309 OFFCURVE",
"511 1280 OFFCURVE",
"606 1280 CURVE SMOOTH",
"1088 1280 LINE",
"1088 1440 LINE",
"196 1440 LINE",
"196 0 LINE",
"1122 0 LINE",
"1122 160 LINE",
"606 160 LINE SMOOTH",
"516 160 OFFCURVE",
"432 128 OFFCURVE",
"385 76 CURVE SMOOTH"
);
}
);
width = 1200;
}
);
unicode = 0045;
},
{
glyphname = F;
lastChange = "2020-03-18 15:35:44 +0000";
layers = (
{
layerId = "4B6FBC9C-F998-43BC-A943-BECCA28E0CA2";
paths = (
{
closed = 1;
nodes = (
"386 0 LINE",
"386 434 LINE",
"386 539 OFFCURVE",
"365 614 OFFCURVE",
"324 655 CURVE SMOOTH",
"307 672 OFFCURVE",
"307 700 OFFCURVE",
"324 717 CURVE SMOOTH",
"341 734 OFFCURVE",
"369 734 OFFCURVE",
"386 717 CURVE SMOOTH",
"427 676 OFFCURVE",
"502 655 OFFCURVE",
"606 655 CURVE SMOOTH",
"1036 655 LINE",
"1036 815 LINE",
"606 815 LINE SMOOTH",
"502 815 OFFCURVE",
"427 794 OFFCURVE",
"386 753 CURVE SMOOTH",
"369 736 OFFCURVE",
"341 736 OFFCURVE",
"324 753 CURVE SMOOTH",
"307 770 OFFCURVE",
"308 799 OFFCURVE",
"324 815 CURVE SMOOTH",
"365 856 OFFCURVE",
"386 931 OFFCURVE",
"386 1034 CURVE SMOOTH",
"386 1061 LINE SMOOTH",
"386 1146 OFFCURVE",
"357 1221 OFFCURVE",
"301 1280 CURVE SMOOTH",
"279 1303 OFFCURVE",
"276 1341 OFFCURVE",
"301 1364 CURVE SMOOTH",
"325 1387 OFFCURVE",
"362 1389 OFFCURVE",
"385 1364 CURVE SMOOTH",
"435 1309 OFFCURVE",
"511 1280 OFFCURVE",
"606 1280 CURVE SMOOTH",
"1068 1280 LINE",
"1068 1440 LINE",
"196 1440 LINE",
"196 0 LINE"
);
}
);
width = 1200;
}
);
unicode = 0046;
},
{
glyphname = G;
lastChange = "2020-03-18 15:36:01 +0000";
layers = (
{
layerId = "4B6FBC9C-F998-43BC-A943-BECCA28E0CA2";
paths = (
{
closed = 1;
nodes = (
"111 272 OFFCURVE",
"357 -24 OFFCURVE",
"748 -24 CURVE SMOOTH",
"1066 -24 OFFCURVE",
"1335 196 OFFCURVE",
"1335 593 CURVE SMOOTH",
"1335 744 LINE",
"781 744 LINE",
"781 584 LINE",
"904 584 LINE SMOOTH",
"1003 584 OFFCURVE",
"1083 613 OFFCURVE",
"1136 668 CURVE SMOOTH",
"1159 692 OFFCURVE",
"1196 691 OFFCURVE",
"1220 668 CURVE SMOOTH",
"1244 645 OFFCURVE",
"1243 608 OFFCURVE",
"1220 584 CURVE SMOOTH",
"1175 537 OFFCURVE",
"1134 464 OFFCURVE",
"1100 372 CURVE SMOOTH",
"1046 226 OFFCURVE",
"930 136 OFFCURVE",
"746 136 CURVE SMOOTH",
"465 136 OFFCURVE",
"307 358 OFFCURVE",
"307 719 CURVE SMOOTH",
"307 1082 OFFCURVE",
"480 1304 OFFCURVE",
"760 1304 CURVE SMOOTH",
"963 1304 OFFCURVE",
"1098 1201 OFFCURVE",
"1132 1017 CURVE",
"1331 1017 LINE",
"1296 1278 OFFCURVE",
"1084 1464 OFFCURVE",
"758 1464 CURVE SMOOTH",
"371 1464 OFFCURVE",
"111 1168 OFFCURVE",
"111 720 CURVE SMOOTH"
);
}
);
width = 1456;
}
);
unicode = 0047;
},
{
glyphname = H;
lastChange = "2020-03-18 15:36:24 +0000";
layers = (
{
layerId = "4B6FBC9C-F998-43BC-A943-BECCA28E0CA2";
paths = (
{
closed = 1;
nodes = (
"386 0 LINE",
"386 442 LINE SMOOTH",
"386 543 OFFCURVE",
"369 610 OFFCURVE",
"334 652 CURVE SMOOTH",
"324 664 OFFCURVE",
"312 677 OFFCURVE",
"312 697 CURVE SMOOTH",
"312 722 OFFCURVE",
"331 740 OFFCURVE",
"356 740 CURVE SMOOTH",
"375 740 OFFCURVE",
"388 728 OFFCURVE",
"400 718 CURVE SMOOTH",
"437 688 OFFCURVE",
"499 664 OFFCURVE",
"610 664 CURVE SMOOTH",
"913 664 LINE SMOOTH",
"1024 664 OFFCURVE",
"1086 688 OFFCURVE",
"1123 718 CURVE SMOOTH",
"1135 728 OFFCURVE",
"1148 740 OFFCURVE",
"1167 740 CURVE SMOOTH",
"1192 740 OFFCURVE",
"1211 722 OFFCURVE",
"1211 697 CURVE SMOOTH",
"1211 677 OFFCURVE",
"1199 664 OFFCURVE",
"1189 652 CURVE SMOOTH",
"1154 610 OFFCURVE",
"1137 543 OFFCURVE",
"1137 442 CURVE SMOOTH",
"1137 0 LINE",
"1327 0 LINE",
"1327 1440 LINE",
"1137 1440 LINE",
"1137 1046 LINE SMOOTH",
"1137 945 OFFCURVE",
"1154 878 OFFCURVE",
"1189 836 CURVE SMOOTH",
"1199 824 OFFCURVE",
"1211 811 OFFCURVE",
"1211 791 CURVE SMOOTH",
"1211 766 OFFCURVE",
"1192 748 OFFCURVE",
"1167 748 CURVE SMOOTH",
"1148 748 OFFCURVE",
"1135 760 OFFCURVE",
"1123 770 CURVE SMOOTH",
"1086 800 OFFCURVE",
"1024 824 OFFCURVE",
"913 824 CURVE SMOOTH",
"610 824 LINE SMOOTH",
"499 824 OFFCURVE",
"437 800 OFFCURVE",
"400 770 CURVE SMOOTH",
"388 760 OFFCURVE",
"375 748 OFFCURVE",
"356 748 CURVE SMOOTH",
"331 748 OFFCURVE",
"312 766 OFFCURVE",
"312 791 CURVE SMOOTH",
"312 811 OFFCURVE",
"324 824 OFFCURVE",
"334 836 CURVE SMOOTH",
"369 878 OFFCURVE",
"386 945 OFFCURVE",
"386 1046 CURVE SMOOTH",
"386 1440 LINE",
"196 1440 LINE",
"196 0 LINE"
);
}
);
userData = {
LWTimeline = "H4sIAAAAAAAAE+2db4/sunHmv8rBeX1uQyRFUfLLzW6wC3g3QJJNXhjG4sa+sY049uLa3rwI/N2XVRTVrD+aOz1zZnrmzBMkmdN1SUoiq/irp6RW/+fnf/3x+3//4U+ff/aL//z8+//4P3/64ff1n7/88vnv/+G/fP5ZmKYvn//v93/+bfvvv/r9H//0w68//+zPP/7lhy+f//DHX3O/z7XVpzDP06ef/4//9d8+f/kcN+fzNEf+/Okf/uff/d0//vfdvKXt09/97d/+zf/++3/ilsv2aV1mYYrrpzXOn/jz0DlOn9aQRcuwfFon2bmayhZNZzKvkzzM9KkUZVo/lcV2TuVTyUm0nGvLWV1JHa+adefSzGPLNdbx5GnXmXGOnFKoFxjHlvNUrzmKk8lh8iZsjZHNcg22mHX/upqTPgyvnnNGYcqTnowwLUHPRphK9KYjTOus5yNM26InJNQTcI8fQtTLVm20usHarCOwXfkMj7lWuz6+M6n1WqN22No0aL/m+eP/Zwag/zDESojJMVw/UXv5aTaBxWeQ56JWJX5aolxVuqplsVdFM7AU1bbOyLLKlWbb5vWvsz2pGaSVCnKleVXjYvpPW/5UkppV8pSkPIW8KjletTS7aEueqsckr/aOXyNgWUVbChSaqsG0xlBNSfem+FuWrNZk3q1D/5SSPkqa6oUHM6FxrftLEusR19pylvtV3tikOyfbktZH+gKZls1MBZtXuc3WnVI5R6xzvWTj3LTZLXLJaWfLs/AMMpEP687VPDj68eGXf61w+o/f/frPv614Sil++fyXP/3w43/9/s/ff/7Zf37++T//4+/+/Yf6X/I65zkty3QpYSt52/765fP/++HHP/9z6/ld+PL55wfh/uX7X/3bb37841/+8Gsa4yd5t+U6KcvSTy4HiqL2US+4uNJUN4VlFWGZKAKC8eDIzi6nqdCuKpeRGeMsOO2pzoKLLbEteDGdyVxky0jXJ5exrteSg+lcaI+RaPQWPNQFt662pU8h6biJdXtJ8nTqQb6bJS/T9Om71Y5YXfy7TSUE66fvgtyami3Y7myP8sLrJH4XVNJCRw8WbhQV34Usj5Wp7aKWMTab7l+SbVsdw4y5UX97/JSorbzWedp4pgYTua8zeeTkZN6dnD/Gcnz+bqYzMYZrB/pn/3gdNRR9+I0mdJKsSv4FhZkmT158yPvkjbaFLtxOaCjZtqXT1GNu1N8eP058XnJBJsdJ2OY4FNsnuZtOSfsoH94uSKjx9p2Cep0oGRxkCckAhMwUcmoxqjVnOR01l1uiOEM6HdrIzMVQjiCDq17fIleXTQ5WqrlMatJS3Qll1rRRemCWgZZMbY6h+qHa8sgJnM2R/EW3rNmSHi9RYmCOvNb9e5N9i97kaeWc6eLwGKDBn9cs4uv4WBn3179+GfTYL5Yvy/Jl+iV02X5kRwtAlw1eDl0GXeb1hy5Ta3Kqy6SJdVnWQzZdJrcc6LLH6LKSL6FmUilBlkGW0eVBlkGWjW0hy+R0QpbtM+McGbJsMEGW9c6QZaY/ZBlkmeNV70iWiVlqssycUJNlcouALHukLMvLXPOuAF0GXUaXB10GXTa2hS6T0wldts+Mc2TossEEXdY7Q5eZ/tBl0GWOV70TXRY1xlqabk4o1mQeuuxg1m26rG4l1R+hy6DL+PKgy6DLxrbQZXI6ocv2mXGODF02mKDLemfoMtMfugy6zPGqd6TLnDTdJsusy+RmB132KF22XKYppgW6DLqsXTV0GXTZ2Ba6TE4ndNk+M86RocsGE3RZ7wxdZvpDl0GXOV71jnSZOMvTNJ10mQQedNkjdVnN98tWIMsgy+jyIMsgy8a2kGVyOiHL9plxjnxXWZYhy65HdqQAZNng5ZBlkGVef8gytSauLMuPlmVEItwu25l1iyzbLmldpxVv/YAs48uDLIMsG9tClsnphCzbZ8Y5MmTZYIIs650hy0x/yDLIMser3oksozRdzNJpmg5Z9jRZtsZLnKeyZjzFCF3GlwddBl02toUuk9MJXbbPjHPku+qyAl12PbKjBaDLBi+HLoMu8/pDl6k1cXUZYUwMeZqmGxJBlz1Ol82XbQolLPjxMugyvjzoMuiysS10mZxO6LJ9ZpwjQ5cNJuiy3hm6zPSHLoMuc7zqnegyStOl6SxNp/mQwIMue5Quy5e57k9pjtBl0GV0edBl0GVjW+gyOZ3QZfvMOEeGLhtM0GW9M3SZ6Q9dBl3meNX70GUzHUXM0g1pOnTZI3XZVj1xgiyDLOPLgyyDLBvbQpbJ6YQs22fGOfJdZRm+XjYc2ZECkGWDl0OWQZZ5/SHL1Jp4suxZaTpk2WNk2RYuMea4rCt0GXQZXR50GXTZ2Ba6TE4ndNk+M86R76rLVuiy65EdLQBdNng5dBl0mdcfukytyVfXZTVp08k3dJnVZekStlR5iK+XQZfx5UGXQZeNbaHL5HRCl+0z4xwZumwwQZf1ztBlpj90GXSZ41UfQZfZNB26zOqyfJlqEpAgyyDL+PIgyyDLxraQZXI6Icv2mXGOfFdZtkGWXY/sSAHIssHLIcsgy7z+kGVqTV5Dlp2l6R9ZlpVL9ZKtptPQZdBldHnQZdBlY1voMjmd0GX7zDhHvqsuS9Bl1yM7WgC6bPBy6DLoMq//h9ZlZNb5JXRZa+ml6S+ny8qULnmZ1w26DLqsXTV0GXTZ2Ba6TE4ndNk+M86RocsGE3RZ7wxdZvpDl0GXOV51X10Wocta5zehy9aJ/AG6DLqMLw+6DLpsbAtdJqcTumyfGefI0GWDCbqsd4YuM/2hy6DLHK+6ry5L3FKuCXRZa+ml6S+py+bLtEy54HWM0GXtqqHLoMvGttBlcjqhy/aZcY4MXTaYoMt6Z+gy0x+6DLrM8ar76rI2qXJNoMtaSy9Nf1ldVvP4Lc2QZZBldHmQZZBlY1vIMjmdkGX7zDhHhiwbTJBlvTNkmekPWQZZ5njVfWUZbpftnd+ALCuXaasbVMZjjNBlfHnQZdBlY1voMjmd0GX7zDhHhi4bTNBlvTN0mekPXQZd5njVfXUZbpftnd+ELotVU1RngC6DLqPLgy6DLhvbQpfJ6YQu22fGOTJ02WCCLuudoctMf+gy6DLHq+6ry1pLuSbQZa2ll6a/rC6by7bGBbIMsowuD7IMsmxsC1kmpxOybJ8Z58iQZYMJsqx3hiwz/SHLIMscr7qvLMPtsr3zm5Bl6xK3ZcOvSkOX8eVBl0GXjW2hy+R0QpftM+McGbpsMEGX9c7QZaY/dBl0meNVL6XLxJQ8qMt0fnnPNP0j67L1kkKq5MVjjNBlfHnQZdBlY1voMjmd0GX7zDhHhi4bTNBlvTN0mekPXQZd5njV/XWZZmBL02VO/lpp+gfWZSFd6t/q45BlkGV0eZBlkGVjW8gyOZ2QZfvMOEeGLBtMkGW9M2SZ6Q9ZBlnmeNX9ZZnOL++Zpn9sWVbyUgrulkGW8eVBlkGWjW0hy+R0QpbtM+McGbJsMEGW9c6QZaY/ZBlkmeNVLyXLxOU/KMt0oLU0XQz5amn6R5Zl22XZ1rlKAegy6DK6POgy6LKxLXSZnE7osn1mnCNDlw0m6LLeGbrM9Icugy5zvOr+uiypNWlpuuj/amn6x9Zl67rlAl0GXdauGroMumxsC10mpxO6bJ8Z58h312Vf6B8RAu16ZEcUQKAN7g6BBoHm9f9GBZowNYFmrh43zo7O9xdokX5detsS9Bn0GV8e9Bn02dgW+kxOJ/TZPjPOke+pz6YvgeVZ2P/G/W/a/87737z/Xfa/Zf+77n+3Ps4xYB8x9CFDHzP0QUMfNfRhQx839IFDHzn2keNxrn3k2EeOfeTYR4595NhHjn3k2EdOfeTUR07HNPSRUx859ZFTHzn1kVMfOfWR5z7y3Eee+8jzMcN95LmPPPeR5z7y3Eee+8i5j5z7yLmPnPvI+Vi8PnLuI+c+cu4j5z7y0kde+shLH3npIy995OXwiz7y0kde+shLH7n0kUsfufSRSx+59JFLH7n0kUsfufSRSx95pZFRXNiP7AhaFBeGvRrFBRQXvP4oLqg1QXGhtfTE5o3FhS8A0b6wANE1ZAEi7bAAEUAEEHHnlwHRDVXuNU2XeZ7XkM6r3LqecEiyq0g7ZNsh5A5pd4i9Q/4dgvCQiIccPQTqISwPqXmIz0OOHgL1kKyHiD1k7SGhD1F9iOFDHh+C+ZDQh6g+ZPYhvA8pfsj+oxBwCPhD0h8i/5D9RyHgKA0cxYKjfHCUKo7ixVF0OMoQR2HiKFUcxYujnHEUOI6Sx1FeOQouR6HkKJ0cxZSjvHIUXI4SzFGUOco0R0noKBIdxZ2j3NNHvpaEjiLRUTY6CklHaamPfNQB9r+HY+x/jyne/x4n2wfa//bxUE8Yj+ykDkjjRuAhjdMOizQOaRzSOO78MmnceT3BA8+2rQ53VnUTu9Ceaa6prHYpiBPq1j3NZjYoKrNxDTarCaHVmew6TnYdacVVS/ILuXuxB0Uzm+Rrap8mjyxFLAW5LplUZ3J0Mlt0qP4cOEXd+uUgC2YuWkCqTYIDV6OHgnwyV9Q2BN2WNg698XBM2ePzhqQ3RFogtUmwzT5c0exZbrI8pvSOdnw7qQ0dakOkjXvdFE7r/JETm/7PJkcyodHIMUl20olmtdBMjmAviskR7QQu6m4w25x8gO1ZsrPRSDGejl9sf8od1A1zdpRls05FNtO/5i7Lpq4/Ew0UTWc6J+f4RA5JHiZHEN1pq3FmjzI3MityVH9W/SkRVEehTc05IUou9QMEtCvL6aAdx5kNSmvVZFDyq+aC0mTvyIwJg51FPX3j+wGbFfBoPPkcBR/ZTiOJCOWvjB3p1mSiANCdT7DTPlzD68ZqQrzEkMtDv5iFagKqCfwPVBNsEmc+o5rAnVFNkP1RTXBSQGN4KCdENcH2RzVh6PzRqglZgWfSmonBo0BB4ElyU6dygpNuMihsOWExLKI9THfmibflhGAXMtiFpCVXLckxgi0nJDOdXE6Q70bgcoJ9Dp5MqjOXE8xz7FxO0MqNygnyYeA9ysxctIhU+yxHbrDKj2ymP1+8U06QacG+y9jj846U7C5HZSBjy2ZSml3+aNbOI2eXs5Pa2CGdgedqm2w5gb3YDMDsuLr7zg5tkLhQH2cTHWzOQVcU0qcs94FGD2f3ZHo4JZlFxn2zZXtZbF+cioLM2Nrxbb2vVRQ2W1EwpaezMhXlL7otVRQ2p6LgHb+u3zKLuWJ6RHFKXFGws8cVhahDjSsKsj9XFCTjuaJgT4grCnI+OA2Vl9hqmGY2OLVVLamiIOeCdb1zZEKFyrNpcZ0ig/WDVmiwFYVkKwp2GmPdg7LMVhg90q0ZPTawGjZG9qhPR4jdWFOYL9U3ahLywBfxUFRAUYH/gaKCU0TQn1FU4M4oKsj+KCo4NQRjQFEBRQUUFfY87qeKCosCT9CyicEjpTiDZzZFhdXJOAkUqy0qFMOiYn2DzereIi1PtAsZ7ULSkquW5BjyjjC7kJ1OLioUW1SQYoOLCtYLuKiwaaXDRQUt3qiooJ9boChzvuTNESmVUotctUtxlNunLtqOoNvSziFvZLZdxjk+70iz3eUMe3gtzaQ0e3GKCtI72vHtpDZ26F2qns8WvKKC3RV2dlzdfWeHMkSJC/VxNtHB5izfvtGKCpudV7qPrE+L6eEUZhb17EorHtjLYntxigqbU1SwVb+WP+hnX7wC1FmxivIX3Zafp3GKCt7xqaggH1liesgNnIsKdva4qJB0qHFRQfbnooJ8QoaLCvaEOMGU88FpqLzEVsk0s8GprWpJCbCcC5b2zpEJFXLVGlCsyfpBqzXYooIs1/CR7TRyUUE+68PoUS+VIfTYwCLzGCb60zXEbi4qpJC39aG3+6CogKIC/wNFBaeIoD+jqMCdUVSQ/VFUcGoIxoCiAooKKCrsedxPFRWKAk/UsonBI6U4g0dt6lRUcNaCQLHZooKaJDIV4xtsVts/LU+yC5nsQtKSq5bsGLaoYNeCiwoyfMklVxml5LtkUp3J08nssEOLNyoq6KcXKMrsl0D2iHSKCurpgRbl5or2HcEpKsh7mW2XcY7PO1K2uxwVg4zN+eJC44xTVJDe0dhhJ7WxQ7OvztWmeczsiMYTd3Zc3X1nhzIkiQv1cTbRweasXv5HRYVFvl+w0cP9Qkilh+Y37SPqCZZWPLCX1UhjiwrqSz9tXW3Vr+UPit9uAeqsWEX5i27LT9XYooJ7fCoqyAeXmB5y2+Oigp09LiqY9ylyUUH256KCfE6G00Z7QpxgyvngNFQBgCuZZjY4tVUtKQGWc8GpsnNk2ivlqjXOWJP1g1ZrsEUF9Q0zKirYaaSiwiKf+GH0qBe+EnpsYJF5DBP96RpiNxcVcqQtCjUF1BToH31k1BRMKoeaAmoKY1vUFLRf73mhVU57XoiagpwU1BTEkKgp3FJTWBV4klZNDTy2piC/HMA1BSfhJPCol5bz5mJYVFbjG2zOtqbwuIV0lpy3T1tTsDsl1xTknTuuKch9jmsKwXgB1xSCFjrMDrVPck1BP7xAUWa/CdIiUj0Rz5E7O9rPOsjODqemIG9ltl3GOT7vSIvd5agWZGzOtxcaU2xNQXlHY4ed1MYO6Qw8V5v8Fs7ODm+bY3Zc3X1nhzIMKGFcqI8mOticZ6em4HyrhO4k69Niejh1mUW/j4H3FntZjSpOTSE4NQW7Wbb8QT8A49WfzmpVlL/otvxQjVNT8I5PNQX53BLTQ95055qCnT2uKey/AHC1ck1B9ueagnxMhtNGe0KcYMr54DRUXmIrZJrZ4NRWtaQEWM4Fp8rOkSmplqvGO6BTZrB+0EoNtqagvmZGNQU7jVxTkA/8NPTYmoINLDYL9shP1xC7uaZQ/TrmsqGogKIC/aOPjKKCyeVQVEBRYWyLooL26z0x9DJjTgxRVJCTgqKCGBJFhVuKCpsGj5ZNDB71g4QEHvnlAC4qWOdq4DFFhVX9ShzvN8Y32Kxe70jLk+1CZruQtOSqJTmG3CrZhYqZTnK2Vd6546KCFBtcVLABwUUF8z3vxg5bVDAPLzA7zFzs7HCKCurhAY5y611tR9BtaeeQtzJ3dtjjN3bYXY6KQcZmQ2Nnh1NUcHY5Z1J3djhFBfktnM4O44k7O67uvrNDGbLEhfo4m+horbJTVHC+VeL8cN5ODzuH+sWJjR72sho9nKJCdIoKturX8gf9AIxXgDorVnH+4hQVklNU8I5PRQW5ZzZ62KKCnT0uKuy/Oni1clFB9ueignpVIqWN9oQ4wdT0IFTYooKdjZba2qKCnAtOlZ0jU1ItV413QFtncPygoccWFdTXzKioYKeRiwoyr2X0SLdu6LFHppaCPfLTNcRuLiqsZctTjigqoKhA/+gjo6hgcjkUFVBUGNuiqKD9uieG9gRQVPDSbRQVxJAoKtxSVFg3BZ7igUe9P4GLCuai1rrX6/Ni8MiU2m4iDTzJdCazemSZl8dhx2Y685LLlqyrxZW0okLQnVtRQbKDQSHWthUVsu7cigrZZYcUmo0dysbsMHOxs0O15aKCErRcVDBXtBcVVFsuKnjssMdv7HA44exy9CCK7U/Lbnc55R07O2z/xg4rVDep4To7jCfu7Li6e39SQRrm60fGhfpoooPNWRav9qKCnVe6b6xPq9HDzqHaR3Z62Mtq9FCkYHqoQgPTw/ZvRQXlV5xnOH41O37F+Ytqy/RwimXe8bmo4NBDnFIrKpjZa0UFHWqtqCD6t6KC2UmdE2pFBbmHcxoqBTZvOmY2WmorW3JRQal9KirYI/OTCnLH4sU1JscPTtFj5IEzja2oIPdzLipIDjJ67JHJPISJ/nQNsRuLCvkyx2lLKCqgqND+0UdGUcHkcigqoKgwtkVRQft1TwztCaCo4Il6FBXEkCgq3FRUaPde9zHqIuv7fq2oIK+Aiwoqd6aigp0RBo+8At5EJBH8/aYVFWRnXh45SWfsoCVX7CBdLa6kFRWMF7SigrjAVlQQLtmKCsalW1FBu3Rjh4ooZocTZc7e3dih2nJRQQlaLiqYK9qLCqotFxXULnUzO+zO5zx1srNDC+Vb2WGF6qYFbWOH8cSdHVd370UFaZivHxkX6qOJDjZnzW8uKth5dfa/B+ihOetuOTs97BMgj6cHFRUceshNcM9JHL/i/EW1ZXo4xTLv+FxUEHPl0qN9SUT1bkUFHWqtqKDoQUUFuTNzUcGcUCsqiM4tDX0UPTi1lS25qKCYQEUFe2QuKsgdixfXmBw/aOiRp83okRstFxXMNLaignksQbl1Q489MpmHMNGfriF2c1Ehb2tJqCmgpsD/6COjpmBSOdQUUFMY26KmoP2654X2BFBTsKkIagpqSNQUbqoptFuv+xh1kfVtv1ZTULfpqKagUmeqKdhbYGfgMdNZNnvbj8zqO8G8PPLZBV5Ie/+Ml1y2tPfq2ysVzFMOraYgLrDVFBQ7aJsz9/RbTSE9mh3Kxuwwc3HCDuKExw5zRTs7VFuuKdhdzjs+70jmhwvP2GEm5QF2qDoDs8P2b+ywOnXTeraxw3jizo6ru/eagjTsTyL0DvqjiQ42Z81krinYeV1OHgBZnAdAfHrYyzqnh30AhH7nQ/dvNQXlV7yDOn6VHL/iVyqotqf0cI7PNQUxV40e4pRaTcHMXqsp6FBrNQXRv9UUbNpoT6jVFGTCSmmoTr2bSXem1Fa15JqCSdK9I3NNwTzUpX84wveDhh5VQLDo4ZqCmcZWU5D7OaPH0IgCQHcm8xAm+tM1xG6uKdQteJ0W1BRQU6B/9JFRUzCpHGoKqCmMbVFT0H7d80J7AqgpeJoeNQUxJGoKN9UU8JwCnlMYbLezw+58eE4BzyngOYW9JZ5TeOJzCssllryEBQ8qoKjA/+gjo6hgcjkUFVBUGNuiqKD9uieG9gRQVLC5CIoKakgUFW4qKuBBBTyoMNgaO+zx8aAC00NHB5vxoIJqe0oP5/h4UKF3xoMKY1Fhni/znLapoKaAmgL9o4+MmoJJ5VBTQE1hbIuagvbrnhfaE0BNwdP0qCmIIVFTuKmmgAcV8KDCYLudHXbnw4MKeFABDyrsLfGgwtMeVJjny5bKlhJqCqgp0D/6yKgpmFQONQXUFMa2qClov+55oT0B1BRsKoKaghoSNYWbagr45Ydi7srjlx9M/8YOhxPOLodffsAvP+CXH/aW+OWHp/3yw5wv65ZTjiuKCigq0D/6yCgqmFwORQUUFca2KCpov+6JoT0BFBU8UY+ighgSRYWbigp4UAEPKgy229lhdz48qIAHFUyh4pQeeFBh74wHFURRYbmkEOd52x5ZVIAM24/sbN+QYdfukGGQYScJCmSYBClkGLf8CjLsFvLl6RKWKW7lAfJ9+fwv3//q337z4x//8odf0xg/yTuoPag9qD2oPag9sW9A7fXZeQG191d90zdMX6YPcbvMeRRK3aE/4xiklugPqeUoK2OA1ILUgtTq2LlBai3xUpE9rSFAaumN9hRRkFqiP6SWo6yMQWsrSK1ug9QaTSeQgtS6UWrleyqtQhhTfPExlmjzf9yXTszWCaU1hjuUFpSW0x9KS0MMSotbvrbSKpcK3C2WB34gA0pLrRqUlugPpeUIK2PQ0gpKq9ugtEbTCaSgtG5UWsvdlZaSQCcY26C02AqlZZb9CRjTyIfSgtLSEIPS4pavrLTKdAllyw89Nw+hpRYNQkv0h9BydJUxaGUFodVtEFqj6YRREFrvSmiVijFpuhFjcsIfwhiEVgt3CC0ILac/hJaGGIQWt3xtoRUueQ5pWfDwIJTW0BZKC0qLIQWlNVihtPbDvAOlNd9TaT0fY3LCH8IYlFYLdygtKC2nP5SWhhiUFrd8baWVL1MKa5ihtKC0hrZQWlBaDCkorcEKpbUf5h0orfK+ldbjMQal1cIdSgtKy+kPpaUhBqXFLV9baZVLqnE/Bzw9CKU1tIXSgtJiSEFpDVYorf0w70BpbR9FaVmMQWn1tlBa2jU7xuwJQGnZnRNKSw0JpfVkpbVdqkRIuKMFnTW0hc6CzmJEQWcNVuis/TDvQGfd/x3vd+SYOpkTjkFoif4QWo6uMgYILQgtCK2OnRuE1hovawh5mfDmQUitoS2kFqQWQwpSa7BCau2HgdRS5/nGpNbjOAapJfpDajnKyhggtSC1ILU6dm6TWlvdy2a8EeMGREFqif6QWo6yMgatrSC1ug1SazSdQApS61apFSG1+sk8nmOQWrItpJY2QGpBakFqdezcIrWWy1w9NK+QWs9CFKSWbAuppQ1aW0FqdRuk1mg6gRSk1q1S652/ffAuHNuq/2RhSlM7hOqcava8ygwWUuuMY5BakFqiLaTWtSWtz8eQWttlSfO6LVBaep+9gVBQWlBaUFpqWqC0xJBQWsfsQGmJtXk7HKOQXR7FsblCJwh/hNI64xiUFpSWaAuldW1J6/MhlNYWLlOaty3jptZzEAWpBakFqaWmBVJLDAmpdczOq0itBKnVT+YFOMY3tURnSK0zjkFqQWqJtpBa15a0Ph9DaqVLWvI2QWm9DqGgtHT/c0LZ/RVKC0oLSmtvCaX1oNLKUFr9ZF6HY1BaJxyD0oLSEm2htK4taX0+htIqlxBznhb8pNbdEAWpdYIou8FCakFqQWrtLSG1HpRaC6RWP5n7cQxSC1ILUku3hdS6tqT1+RhSa7ssK/kT7mq9KUS5uymkFqQWpBak1t4SUutBqVUgtfrJvDmOQWp5/SG17FWdUwxS62qC1DpMb1VqbVO61Kva1oC7Wu8BUZBaZlJ2REFq6dM6h5TGubuz7ZCC1BqskFr7Yd6B1Hrdb2oBY7dgDErL6w+lZa/qHGJQWlcTlNZherNKK0yXpVS3xU2td4EoKC0zKTuioLT0aZ1DSuPc3dl2SEFpDVYorf0w70BpvdhvaulABca45S0Yg9Ly+kNp2as6hxiU1tUEpXWY3q7Sipd1y9sWIbT0PvsGCQWhZSZlJxSElj6tc0Zpmrsb284oCK3BCqG1H+YdCK3pS/jlF3qKcP8b979p/zvvf/P+d9n/lv3vuv/d+jjHgH3E0IcMfczQBw00KmQen8ybgyhkntcfMs9e1TlCIfOuJsi8w/SqMu/LlSX/+v3v/zTCBHP/Feb+NiG95UsFQJzTuZBGinJ1E6Qon5GiIEVBioIUZej8HjHZzDenKGtdzFh0PNClknU46JLDp7iJ61rqpSbrDLlOSprlDlvDIMlNK9fhyaQ71yDULeP6KSWxHGyarCNVc9xExNVc4FNcZefq17TyunPdAGOUF1j39CD3VTLp6uuNGcp6KbHk6aGvr+gUhVIOJAl8MkgSRhuSBCQJSBKQJHyzSUL4iEnCPE3zJeQlhYIkQccNkoTWHUkCkgQkCbI3koSj80dKEj5kJYGThDWFKdxwr4PuUSBH4JNBjjDakCMgR0COgBwBOcJZjpBN53eRI5TLMsetLMgRVNggR2jdkSMgR0COIHsjRzg6I0e4IUewjvQucoT1EtMUl3TDzQY8NKliBykKdz5LUYruXxck6sPcmKK0dETYPlSKEu+eotBXI5GiiLZIUa4tb0xRxGl/hRRFpjwvn6KEbFOUVPEvZnTxU5SlLkmSc5+39vDDaHr+8xB+GUOmh7muo7qS0xRl/hTl3LcUReyLz09RQrpsy7zEh16Q8JZTlIAURXe+Y4pC729IJkV5bBWlnvcS9KAnKcpLVFGSe/zXS1ESz5Pu76coXhUlnKUoQWckjmFMSvQnN0V5bBUlVW7aq3q9FKWuajR78yumKME/PlKU3plXHVUUucOiinKkKCle0jbNqTzrZblYxxdZxzf9XhIkh6bzm0sOqfHXTg7bpQvbu0sORTw+kBzWuVpkW04O5Tb0IZNDNYPPTg6TTfiQHI6mF0sOxWl/heQQ9SsnqTBu+C7qV2m7zEu9xAcew0FuiNwQuaE4GeSGow25IXJD5IbIDV82N6QMwCYV82pywzma3DCtblKRiskN02JywzS7uWEKJqmIm0kq2GRzQzKr3DAFkxum6CYVKWedG6ZickMyOUnFDblhXi/TtoW8PPD4FZLDN5EcIi/jk0FeNtqQlyEvQ16GvOwr5GW3pA1LuNQtJj30pltkDW8ia6DSkPxpb2QPpjOyB9kf2YOTLBgDsgdkD+8xe6gzEVQB41WzhzDFS/1nTF/1htS4wvXkZo4iubQz/U6TcMCzpa2bUokSCGUzC5abSXe+YWmL6UzmItyv/67SY5Y2+UsrCeotLfKG4TDIG4a2yBuQNyBv+HbzhnrZ6nf8boTLK+YN6bKEutXPX/UpZyQO52v7xMQhIHHoJ4PEYbQhcUDigMTh20gcNn0lp3CpE6R+Z/i1E4d8iYHqDsgbTGfkDftZIm8gE/IG5A3IG2xb5A3XlmdwsTullzfcBJdJvMDh1fOG5ZKXpZL4qz4dicThqycOuFNxnAwSh9GGxAGJAxKHD5g4eHB5xcRhvSxpWnPGnYq3nThMSBz6ySBxGG1IHJA4IHF4n4lDkfvV8+HyeolDCJd1CfM0o+KAxOHwKyQOSByQOCBxsP2ROAydb4CL3SlfBC6vmDjESym5/i8ShzedOCwbEod+MkgcRhsSByQOSBzeeuLwSnB5xcRhvqQ51z9IHF5pbZ+YOMxIHPrJIHEYbUgckDggcbBw2YTvnsGlphclyZ0NicOjEodymZdKs4y8wXR+kaVF3oC8YbQhb0DegLzh6+YNXHAQ3zm4BS7IGx6TN6yXdVvSFlckDqbzi6ztExOHjMShnwwSh9GGxAGJAxKHr5k4WLggcbCJw3bZlryViDsVr7S2T0wcIhKHfjJIHEYbEgckDkgcXhYuSBxM4hDjZanrFFYkDq+0tk9MHPD+p+NkkDiMNiQOSBw+dOLwCnBB4mATh3JZ81p9HK9xeKW1fVriUPCMw3EySBxGGxIHJA5IHF4WLu8mcZCdPbg08/MThzRdprptpg3POLzS2iJxQOIw2pA4IHFA4oDEgTbPV4BLM3+FxCFc6v/NM17j8HbW1ksc6PVPX+pfumNBf+mRB/pLL6Kmv5RX0F96hpL+Lvvfsv9d97/0Ngge5xiwjxj6kKGPGfqgoY8a+rChjxv6wKGPHPvI8TjXPnLsI8c+cuwjxz5y7CPHPnLsI6c+cuojp2Ma+sipj5z6yKmPnPrIqY+c+shzH3nuI8995PmY4T7y3Eee+8hzH3nuI8995NxHzn3k3EfOfeR8LF4fOfeRcx8595FzH3npI/NdLP5HH3npI/N3cfgfh1/0kZc+8tJH5jeF0D/4XWP8jz5y6SPzi8/5H33k0kcuh8vRyD3H3dZHpbiJkF6uKa3zeco6NyPzNssX9lfgrep1fHWnWWfD8BhbwiK2gZo+qpCtprJtpjOZi+xct4GSZam4Zg5k0p0L5bOyJX0pMKun+aqpmD0p1c1ilT9uVDfxmsOLdC6HwibVmbLeNTVOXK1bpMYyRZwonZO/hVCTgXrei9mfeWHUydcEo126sJXsTUdNXOjiVds655TOjrY6qHv8UFNRminRlhZI4qXZ7FqyfQ06Hc7VO3QyuPA86f5TPc9Vpdg0V1uWY5Kt/j97AvwfBnevGa1juH7ihRCf5jqqSXHnT1mJhKkm4kuUK0VXtVgpxTOwFNW2zpT6lmub1cm4WrMHnSJnTif18Usy+GwiJymvWqtN3o5pXjU7XrU0u2hLnjrbVXGPTznLJtpuBH+pnymiyKR6U/yRWae4NNWif6pHXzZxlhz4NueOnPKrXYM0o8xPKO5ms2vw5qRa0vpIX2DTZPJ1Mut3o9e9RV0JbbNLNs4dS73mII9ct+2cVWaU2Id152oeHP34cFuKW8JlyiGnB57GST+d4ipktSpM3WEORD1QhZGrVrmhEXVWhVl17YKrMHKvalUY44LPrMJQNi1bUhq+iFU7q8IQcCfRkgTALVUYLQ5JXKr+exXG0auOXm9VGL0Z1guSbtj0cjZX1LS1bksB6VZh7PHr/9SZ0pshVWFsvaCc1AtWp16ganR7FcbsHXytq3QGnqvNbIZchTGe2P7D4O57FUYZ5utHLryojyY62KzK5HWt6i5rIEEC0l5Xq8PYOVTbVbPZdzC2+Z506nBWhzHb6g4pdf5csXP8yqrTvRKo2nIdxlbMnONv26pFNNUraaYGUyvDmMk7KcM4T4y+vZdimZVk8yr32TjpGt2ZVF82yyiS6vJKPKm+mwdH15+uQeLJetwOOE7mBES4HSD643aAU/03BtwOwO2Any4ZP59Dhsj3Khk38/NvB5R4iSFvz3rFEpQSlJJsC6WkDVoaQSl1G5TSYHo+ocxKQik9CkRyNm4AUdC5MJRS7w+lBKUEpaSRC6V0tHxXSildpm0tJUEq6X32lFCQSqI/pJKjjIxBayNIpW6DVBpMz0eUWcn3KpXoGb1XlEpPBhGk0h5xkEoGupBKkEqQSntnMr9nqbRcpmVbA6TS4wkFqST6Qyo5ysgYtDaCVOo2SKXB9HxEmZV8r1KJv9AGrcSLcEKir6yV6Es0N5AIWkn3h1ayVwWtBK20dybze9ZK66VMsToftJLeZ08JBa0k+kMrOdLIGLQ4glbqNmilwfR8RJmVhFaCVnJI5Gml20gEraT7QyvZq4JWglbaO5P5PWul7bLkOS7Ls156CrEEsSTbQixpg1ZHEEvdBrE0mJ7PKLOS71YsvfKPWT+ZRG9KLNFmLI78ciSCWNL9IZbsVUEsQSztncn8jsXSGi71cDGE87fgQSzpVYNYEv0hlhxtZAxaHUEsdRvE0mB6PqPMSr5bsYRvLHXTGYkcsUR3lh4nlggRuLM09IdYglhyvApiaeh8A4gMkt+9WMqXraylQCrpbfYUUJBKoj+kkqOMjEFrI0ilboNUGkzPJ5RZSUilDySVXpNEkEq6P6SSvSpIJUilvTOZ37NUKpe8LSFOeAjv8YiCWBL9IZYcbWQMWh1BLHUbxNJgej6jzEq+W7FEP1sLscSLcEKiJhrEQrwiiSCWdH+IJXtVEEsQS3tnMr9nsbRdpmmN6wKtpPfZU0JBK4n+0EqONDIGLY6glboNWmkwPR9RZiWhlb5ZrXRfEkEr6f7QSvaqoJWglfbOZH7HWmmbLutUNwi8Nfy9EEoHDrQStJKT7u+MsnMIrTSYoJUO0wmi7qeV1m9OKn1bIIJU0v0hlexVQSpBKu2dyfyepVK65DhP+IGld0MoHTiQSpBKTra/M8rOIaTSYIJUOkwniLqfVCrvWypt2vStgQhSSfeHVLJXBakEqbR3JvN7lkrLJc9Tzgteg/deEKUjB1oJWslJ93dI2TmEVhpM0EqH6YRR0ErDBLkg8rXStw8iaCXdH1rJXhW0ErTS3pnM71krrZdp3epuBqmk99k3SigdOJBKkEpOtr8zys4hpNJgglQ6TCeIup9Uei8/RUt7tVmaDwAiSCXdH1LJXhWkEqTS3pnM71kqbZd5iaVkSCW9z75RQunAgVSCVHKy/Z1Rdg4hlQYTpNJhOkEUpNIwQQARd4ZUglSCVLKr4h4fUql3JvP7lUpxmi5lK2UuAVpJb7RvFFE6cqCVoJWcdH+HlJ1DaKXBBK10mE4YdT+tNFWt9IVehrf/pXfi0V/60SX6O+9/8/6XtBX9pSf36C+9GIL+bn2cY8A+Ir9mj//Rxwx90NBHDX3Y0Mdd+jhLH2fp4yx9nKWPsxxn18dZjnH6CS79DEsfufSRSx+59JFLH7n0kctx4U95ZlFm03FzPnvopv1RoXu26N58dG8aWLF6mEF38dFdLLoXA+SFIsuJQaO84kZUUujOPrqjRXfj9GDKodFYdYa6hLqEurSr4h7/eeqytVTknhrPh/4UzkZdZpfctEUodckbiSJ3g7nuzJuTInex5C6+uixWXW76Smib9chdN2SjLskzlbpsPqw7b8LRjw+3qcs1XvJKH07FZQD07wH9qCDvfPagHy30s4F+HceDfpo0KmMNNQP91Yf+aqFfNLoi7TuWcnFtuYBw+tlCf/Ghnyz0jd7OxDFAH9AH9EXb14P+4kLf9KdwNtBffOjPFvqOXHdrF21zUtBfLfRXH/qrgX4yhQfaZl3oZwv9aKEffejH0dGPDzdCf77kmj6cv/4qauaHzsTQmRg7E+ORB3Qmxs7E2JkYOxNjZ2LstI195NhHTn3k1EdOR4rRR0595NRHTn3k1EdOfeTUR577yHMfee4jz0f20kee+8hzH3nuI8995LmPnPvIuY+c+8i5j5yPxKiPnPvIuY+c+8iZRr7mDBNyBt35jjlDdHMG6q9zBrqVoHOG6DJ7yvV6smq710iErSRvOioJzN2RSozi5Aw0Sfb4ISQnZyhOzkBFH7Mxsd3mDMnJGVpupftPeas5g5q/mVxT04m92J4A/weZIjiGMUvQn9ycgXZmnTNUQpmcgdSrvSqaAZszFCdnIHVpXK3NtskZkpMzEAsdZlNIJOVVXOZ2vMrNGZz8gjzV5AzRP/5EN4hVztAygcFEEYWcgU1vNmfYpktOW1jDI5OGW9nlPDKlP3vswv3pz7fdnyZeW3Y1HTf037bNQdfkomOaN4uubC6xbjJuyb+JGN3WvT3tozPw7WmNruygK5+gKzvoCg66Gvh1/ykXB13kmXqTZCe2J8D/QZLKMYyw0p9cdNE9QI2uuh0bdNHma6+KZsCiKzvoyifoyg66goOuE3RQRBh0ORKWvMpFV7PLFdgcdE3e8SkADLlMiZriySWXe3MaD1Bxy6/9ANX0E+RaLqXUFOOhV5g9A100D32tP2PpX3jp2weTGujPSBWo87NSBVpkMu8R9+XBADgaIsVAivEJKYZdFef4z0oxBHZuAmIK6VJxuC3n9V+fh8uygIfg4X7RH5yHNwXccknrlAo9S/GoiPvF9SkLvp1xRGB5VARmRCAi8JjXbycC89MjcL1MYc05rM+NwPVRETgjAhGBx7x+OxE4PycC64ps8dkBuD0qABMCEAF4zOu3E4DpOQE4zyVXBj4zAsv0qAiMiEBE4DGv304ExudEYK4acH3sfQgOwMABGPa/cf+b9r/z/jfvf5f9b9n/rvvfrY9zDNhHDH3I0McMfdDQRw192NDHDX3g0EeOfeR4nGsfOfaRYx859pFjHzn2kWMfOfaRUx859ZHTMQ195NRHTn3k1EdONDL2Luxd6mywdz1wSwcBgAC4zuu3GgC3wDuGy7SGqfoE6H0vej9S+2PzwuZ1nddvdfN6gN6q+DXEwxAA9GS6CoBsAyC4AZD4hrqchNUGQPEDYLYBEG0A0GPiTgCQWT9GbQNg9gNgNQGQJhMAZHICgMxXnw/qw+jw1NJ8tgFAZh0Aqw2A2Q8AigsVANEGAM2rEwBkVgHAi6K2ND8AeKHVNmkDgBzHCYBsA4C+JKICYPd01fkZxa9K77rwW3rg8fUJ9H5hej/u1hnoDXpf59XZvL51eqt7xwPMhwCINgDowTsVANENgERfOlcBsNkA2F+gomcw2wCgF6ioAEh+AJBZBQChWgUAvULPCYDNBEAKJgDI5AQAma8+H9UHQWtNc/psA4DMOgA2GwDZDwCCugqAZAOA5tUJADKrAOBFUfmYHwC80CrHswFAjuMEwGIDgJ/rlQGwY1p1fsa940rvknMo0003jxuCQG/6x1eg9+MePQO9Qe/rvDqb17dOb/Xs5QDzIQCSDYBiAyC5AZCiCYA02QDY/ABYbADMNgBmPwDIrAKAUK0CYHEDIFHQK3pHEwBkcgKAzFefF19UUF9joJbmsw0AMqsAoBPUAbD4AUBQVwEw2wCgeXUCgMwqAHhRlFu7AdAWWuV4NgDIcZwAKDYAkg2AHdOq8zOevYzxUvOTaQ7Q3vej9+O+ugF6g97XeXU2r2+d3osMgAHmQwDMNgBWGwCzGwApmQBIwQQAlYa9ACg2ALINgOwHAJlVABCqVQAUNwAS3S1Q9E4mAMjkBACZrz4/qw+C1prm9NkGAJk1vamKrAKg+AFAUFcBkG0A0Lw6AUBmFQC8KGrzcwOgLbTK8WwAkOM4AbDaAJhtAOyYVp1pkZ9O75TWBHbfjd0Z7Aa7W2ew+5zdRbJ7FOLX0WjVldvMlt2zz+7Zsnu27J59difL7mTZTSYnANgsAyBZdief3XynXwbAbNlNJicAyHz16ZHd9GF0eGppPtsAILMKAL4DLAOALsUJALpo5TY0NSoAeF5tALBZBkBbFLmiPrvbQsuWlt3sODYAyMVUANDsqyvpElt1Jr9+OrtznGo2gifO70bvGfQGvVtn0Puc3qukN72XxwbAYumdLb2pgukEQLb0zpbe2af3bOk9W3qTyQkANssAmC29Z5/e2dI7W3qTyQkAMl/F9Ehv+jA6PLU0n20AkFkFAJ2gCgC6FCcA6KKV29DUqADgebUBwGYZAG1R5Ir69G4LLVtaerPj2AAgF1MBQI6oroQ81gkA8uun03vJJT30u5+A98vCOwHegHfrDHifw3uT8F5deBcL78XCm54ScgJgsfBeLLwXH97ZwjtbeJPJCQA2ywDIFt7Zh/di4b1YeJPJCQAyX9X0CG/6MDo8tTSfbQCQWQUAnaAKALoUJwDoorXbWHjzvNoAYLMMgLYockV9eLeFli0tvNlxbACQi6kAIEdUV0Ie6wQA+fXT4V3yEuYMeN8L3hHwBrxbZ8D7HN5hkvTeXHqvlt707lsVAcWnN71jVUVAsfQuPr0XS+/F0ptMTgSwWUbAYum9+PQult7F0ptMTgSQ+aqmR3rTh9HjqaX5bCOAzCoC6ARVBNClOBFAF638hqZGRQDPq40ANssIaIsiV9Snd1to2dLSmx3HRgC5mIoAckR1JeSxTgSwYz8d31sJOaByfj9+B/Ab/G6dwe8H+B0kv8PkAnyzAF8twFcf4KsF+GoBTtfqhECxAC8W4GRyQoDNMgSKBXjxAb5agK8W4GRyQoDMV0U9Apw+jC5PLc1nGwJkViFAJ6hCgC7FCQG6aOU4NDUqBHhebQiwWYZAWxS5oj7A20LLlhbg7Dg2BMjFVAiQI6orYZd1YoBd+6kET5dpy+sKAX43gIPf4HfrDH4/wO+o+B1cftc1MTGwWYDTD8I4MbBZgG8W4JsP8NUCfLUAJ5MTA2yWMbBagJMfOTGwWYBvFuBkcmKAzFdRPQKcPow+Ty3NZxsDZFYxQCeoYoA+OjFAF608h6ZGxQDPq40BNssYaIsiV9QHeFto2dICnB3HxgC5mIoB9kRNcHJaJwrYuZ9O8FDiHHH/+24E/642BMKB8HbRQPhJAISkEB59hAeL8DBZhte1c6MgTJbiYbIYr/7hBsJmOb5ZjpPJCQQ2y0DYLMc3n+P1LE0k1KsxocA2JxbYftXXI8vpw+j83NQabDiwXcUDn6cKCLokJyDo4pUb0RSpgOD5tQHBZhkQbXHU2vpA39dctbVIb35kg4J9TkOdfFNDndzYiQt296dDPdHv5qXHvkYVKDo6A0WtM1B0jiJsh3vbe22H+2dkA3wIdy96sWzgRhTlS0xxu6VCfFVJh246lNShrQ61deivQ+sd6u9QbYeOO5TdofUO9XfowUMhHprx0KeHYj2U5qE9DzV66NNDsR4a9lC1h87tI/eB+7h92D5qH/SYh/3vMeL+91Cl0JeaR4B6u2hA/SQAtkw/qa49nn9+WjMq0PsYNcvowu25h1DMZYawmnkLka7dTlyI0cxcoDdbqqVoNrtqbFcLHPg1mJq79GJr6zIh1DGVd9VrmrUTso391QxA/2HMjYjcxnD9RO3lJ4orjfVq1iCjM9XA4zeZ25jmGdBpAb8kVe4SzWY3lDbbcu/ZV0odn1fV8Qr2AOUV5Ckq1WCvslspe6BJYejdtCo3yO7PmhPNh72ePj5Vaa6XHJeUtxvqx+D7V+Z7BN/Bd+4Mvj/A92GXG3bSiX4sQfOdFLnmez7h+2Ius+7kZt4qnU747uhqWl7Dd7LZVWO74TuxXPOdHMG6TCWRw/fF4TtR2+W7wXl2DAPRJe0Xn++Lw3eS7ZrvFPk2phv3Nd8p/jXfyWY3lDbbmu+O7G+r6niF1f3NUzTfyavsVsoeaPhOvxyj+L6DXHWnh+BGvqen8327zDne9IvuwPtXxnsA3oF37gy8P4D3YZMbNtKJDq7xTkfXeJ9P8J7NZdaN3MxbhdMJ3u3LpAOto8E72eyqsd3gnRZd4306wTu9j1rjPTt4J2i7eDc0nx3DAHQJ++zjPTt4p5eza7xPJ3inHUHjnbYEjXey2Q2lzbbGu32/+76qjlfYN7w3T9F4J6+yWyl7oME77cQK7zvHVfc1SrzH5+B9qXNRQPe70R1wB9y5M+D+ANyHLW7YRqdk4T7R70NpuKcTuM/mMus2buaNq83OxFX1Z2auosmBO9nsqrHdwJ1ArhOW7QTudG9Cw3124E7IduFuWJ4cw4BzifrZh/vswJ1q0wrudFVOTDfoa7gHB+5ksxtKm20F97ZS6vi8qo5X2B9fa56i4U5eZbdS9kAD92ThvlNcdV+DhHt4DtxLTnNaUJu/G97x5SzQnTuD7g/Qfdjjxn00OnSn327WdI8ndHeeTguzmTeuNTsTV8Wfmbl6KIfuZLOrxnZNdya5pvt6Qne6M6Hpnhy6E7NduhuYR8cw8FyyPvl0Tw7dqTKt6b76dGfqa7pPDt3JZjeUNtua7vZn0fdVdbyCPUDnh2Z/bF5lt1L2QEP3aOm+Y1x1J98d6T49h+7rsoaEB+vuBvcAuoPu3Bl0f4Duwx437qPBoTvNuKZ7OKF7NJdZ93Ezb1xqdiauqj8zc5VNlu5ss6vGdkN3IrmmezmhO02+pnt06E7MduluYB4cw8Bzyfro0z06dKedSNO9nNCdqK/oTjOl6c42u6G02dZ0t5vZvqqOV9jtrHmKpjt5ld1K2QMN3YOl+45x1b1sgu708el03/IScrrh1WjA+9fFewTegXfuDLyf430dNrlxI50cvC8O3qcTvAdzmdVk5o2Lzc7EVflnZq7CycE72eyqsd3gnVCu8b6c4J1uTWi8BwfvBG0X74bmk2MYgC5hH3y8BwfvVJrWeF9O8E7Y13hfHbyTzW4obbY13nml1PF5VR2vYA/QCaLZH5tX2a2UPdDgfTJ4J5/28L5KvK9PxnuaLjHMS5qB97vhPQHvwDt3Bt4fwPuwyV27b/SlME33bOk+bSd0n8xV1n3cTBsXm515q03NxFU2OXQnm100thu6E8k13enb9dZjKnIcuk8O3YnZLt01zOPmGAaeS9ZPPt0nh+5UmtZ0p++V25Bu1Nd0Lw7dyWb3kzbbmu68Uur4vKqOV7AH6PzQbI/Nq+xOyh6oNl1yVA33neKqN7npCPfyHLinJdY/gPvd4D4D7oA7dwbcH4D7sMldu/PbKDXcZwfuqw/3yV5l3cbNtHGt2Zm3Kv7MxFU0OXAnm100thu4E8g13OcTuNOdCQX3abNwJ5sLd/4PguWrYxjCQqCePjlwJ7OBO1WmNdznE7gT9DXc6W0yGu5ks/tJm20Nd14pdXxeVesVzQN0emi2x+ZVdidlD9Rwpy8EKrjvFFe9yR1HuC/PgftS1risgPvd4J4Bd8CdOwPuD8B92OSu3Tf6PpiGe3LgXk7gvpqrrNu4mTauNDvzVrWfmbiKJgfuZLOLxnYDdwK5hns6gTvdl9BwXx24E7JduBuW6/fbkGEIC4n61Yf76sCd6tIa7ukE7gR9DffswJ1sdj9ps63hziuljs+r6ngFe4BOD8322LzK7qTsgRru9HVABfed4qp32V9y0+E+vMfpdrjXOJhLxhPzd4M7fs8EcG+dAfcH4O6+rG5z3lU3Oe+qm+i67anX7dlcZd3GzbRxodmZt6r9zMRVYjhwJ5tdNLYbuBPINdxP3lU30W0JDXfnXXVk8+FuWL44hiEsJOr9d9WRWcOdztTA/eRddQx9DffZgTvZ7H7SZlvD3XlXXVtVxyucd9Wxp2i4k1fZnZQ9UMPdvqqOPNqD+yzhPj8L7ttUTwZsvxfbC9gOtnNnsP0Btg973LX75rynjt8cr9l+8p66yXlP3eS8p47qzM68VelnJq6SyWE72eyisd2w3XlPXSA/sB7T3h+v2b44bCdiu2w3KNdvtiHDEBaS9IvP9sVhu/OeOroqJ6Qb8zXbKfw128lm95M225rtznvq2qo6XuG8p449RbP95D11/JJ5xXb7mrr+vlnVm35sfWT7019Tl8JlinPe8GW4u7F9BdvBdu4Mtj/AdvctdRsdW7OdDq7ZPp+wPZurrLu4mTYuMzvzVpWfmbhKJoftZLOLxnbDdlpzzfaTl9RNzkvq6NeqDdvPXlLH/0GgXL/YhgxDWEjS+y+pI7Nhu/OSOroqJ6Qb8zXbaUfQbCeb3U/abGu2Oy+pa6vqeIXzkjr2FM128iq7k7IHarbTPqzY7r+jrsh31NHHp7M95G2JuON+P7hvgDvgzp0B9wfg7r6lbrMvqducd9TRz205Z14X0Fxk3cXNrHGV2Zm2Cgwzb5VMDtvJZteM7YbtzjvqppN31PHv52i2O++oI5vPdoNy/VobMgxRIUnvv6OOzIbtzjvq6KqciG7M12wPDtvJZreTNtuK7W2l1PFP3lHXPEBnh2Z3bF5lN1JyQI12+4a6/p5Z1bkEifbwHLTXrafOGV4vfz+0F6Bdhy3Qfp0xoJ3RHjYX7W3rGw601RM3aKebrfbMA73x26K9YVzY6ho601aBsZq2IRS9EM1m14ztFu1ZXxI/3eU4TKAbvhbtSbsg207QnjTJHcMIc/3JRXvS8cdnatGevYjmGbBoL3qPaDa7nbTZNminldJop1V1vGJ/tY2cwaB3x+ZVdiMlBzRob8AeTOTPHtqnZu5on65efzva121alg1ovx/aV6Bdhy3Qfp0xoL2hvU2OQntsW99wIP7Su0H76p154JqqQXvDuLDRc1R22iowimlL9WSLdnfNWvXdoL3NiDj+NnsOU891077F+tKiPZ6hPWqSO4YR5vqTi/ao44/P1KJ99iKaZ8Ci3ewRzWa3kzbbBu20UhrttKqOV7AHaLRPendsXmU3Uv4yu0J7bMAeTOTPLtqb+UD71etvR3tNMqawRaD9bmjfgHYdtkD7dcaA9ob24qLdTNlWl8CivXhnHib6XpRBe8O4sJXgTRuXlHVbfvOJQXv21oztFu1m7gL/EI51mHquq/Yt1pcW7eEM7UGT3DGMMNefXLQHHX98phbtyYtongGL9qz3iGaz20mbbYN2WimNdlpVxyvYA1Rb8hSD9uJtpOSABu1mOyN/dtHezAfar15/K9rjpV503pankB18GjuDT62z3WzBJ/CJjwM+fQw+5f2tsX2f31+j+xQ+lUuN4SnGxz4LdhOPsD++zv6Ibc/6Aba9b2/bQz7bO79EPnsbOeZwySVN28uQQ5xjvw5LCX3BzrScTKAz1c6CnC+dXmTHFU6cxnEv64Qn7uo4tuP+PU5U5x5VlhKqvxOkZ/Hsx763R5ztJ87e4+1RD+1nZu+zU3K6n7p7r7dH79u56S82fQkEwwtDlIM9DiUMpzyenbDP46TL0wfYqznt8fyU/V6e4OUTfu7hpClOMtOzHtW550iWEqq/k3KdJGdOGucleydpoZNAOmnmeUKqU1c7E2epsJM0O6l1T8J1b5Ws62T+6eSYL8sSw/TYmthN4Ejrco1A+mDBQVYV3mkx9zzpd7qdDYN+4FNnGyHqLYhNdrcis9rYUmr74mjKbUvUne03i9NKDz0rHLjPJ8+p6C193sydTpoCBxwbfSfZgKMGr5mKMNHPlSl01H3QO6XAPy2m0MGvVtE4WNoNYdOfolK1jYGe65LoIJuzGM2u0WEnhX8M1fGEQD+ZptER6jxrdJDNQwfZr9GUov4kgo0aW4ODDrJrdNCZanTQVTl7Bs+ARgfNlEYHz7TdsJpdSzxeKXV8XlXHK9gDVFvyFIUO9iq7VbMHWolrHtQgn3bgQevpwMPOCQWU0euTd0YcpKoGYF8T0YLeTEfbHmRL/iEnMcFssmtBZrVstH1pDCb3iRXaEpXP0MapXItMHjzYPrrrZj978JjpN+LO4ZHLGi/0O01rOZUddK/FoUd41FfugA/gA/gAPkRb4ONoaWfiTeEjx/QT+Jgv05RiPH3SrtKjjvfjD7/644+//t0fftMB8fvv//Tnv/nt93/4jTvW/we04nnEXHAGAA==";
};
width = 1520;
},
{
associatedMasterId = "4B6FBC9C-F998-43BC-A943-BECCA28E0CA2";
background = {
paths = (
{
closed = 1;
nodes = (
"283 652 OFFCURVE",
"302 671 OFFCURVE",
"302 696 CURVE SMOOTH",
"302 721 OFFCURVE",
"283 740 OFFCURVE",
"258 740 CURVE SMOOTH",
"233 740 OFFCURVE",
"214 721 OFFCURVE",
"214 696 CURVE SMOOTH",
"214 671 OFFCURVE",
"233 652 OFFCURVE",
"258 652 CURVE SMOOTH"
);
}
);
};
layerId = "96F1631F-18DA-4BF8-8A22-9C27D22783B4";
name = normal;
paths = (
{
closed = 1;
nodes = (
"290 0 LINE",
"290 664 LINE",
"1040 664 LINE",
"1040 0 LINE",
"1230 0 LINE",
"1230 1440 LINE",
"1040 1440 LINE",
"1040 824 LINE",
"290 824 LINE",
"290 1440 LINE",
"100 1440 LINE",
"100 0 LINE"
);
}
);
width = 1330;
}
);
unicode = 0048;
},
{
glyphname = I;
lastChange = "2020-03-18 15:36:17 +0000";
layers = (
{
layerId = "4B6FBC9C-F998-43BC-A943-BECCA28E0CA2";
paths = (
{
closed = 1;
nodes = (
"196 0 LINE",
"386 0 LINE",
"386 1440 LINE",
"196 1440 LINE"
);
}
);
width = 576;
}
);
unicode = 0049;
},
{
glyphname = J;
lastChange = "2020-03-18 15:36:33 +0000";
layers = (
{
layerId = "4B6FBC9C-F998-43BC-A943-BECCA28E0CA2";
paths = (
{
closed = 1;
nodes = (
"100 -4 OFFCURVE",
"151 -7 OFFCURVE",
"187 -7 CURVE SMOOTH",
"531 -7 OFFCURVE",
"531 276 OFFCURVE",
"531 416 CURVE SMOOTH",
"531 1440 LINE",
"351 1440 LINE",
"351 436 LINE SMOOTH",
"351 292 OFFCURVE",
"351 151 OFFCURVE",
"149 151 CURVE SMOOTH",
"125 151 OFFCURVE",
"81 153 OFFCURVE",
"44 161 CURVE",
"44 7 LINE"
);
}
);
width = 720;
}
);
unicode = 004A;
},
{
glyphname = K;
lastChange = "2020-03-18 15:36:48 +0000";
layers = (
{
layerId = "4B6FBC9C-F998-43BC-A943-BECCA28E0CA2";
paths = (
{
closed = 1;
nodes = (
"386 0 LINE",
"386 434 LINE SMOOTH",
"386 539 OFFCURVE",
"366 614 OFFCURVE",
"324 654 CURVE SMOOTH",
"307 671 OFFCURVE",
"306 699 OFFCURVE",
"324 717 CURVE SMOOTH",
"341 734 OFFCURVE",
"369 735 OFFCURVE",
"386 717 CURVE SMOOTH",
"1057 0 LINE",
"1308 0 LINE",
"578 741 LINE",
"1238 1440 LINE",
"1013 1440 LINE",
"386 752 LINE SMOOTH",
"370 735 OFFCURVE",
"341 736 OFFCURVE",
"324 753 CURVE SMOOTH",
"307 770 OFFCURVE",
"308 800 OFFCURVE",
"323 815 CURVE SMOOTH",
"365 855 OFFCURVE",
"386 931 OFFCURVE",
"386 1033 CURVE SMOOTH",
"386 1440 LINE",
"196 1440 LINE",
"196 0 LINE"
);
}
);
width = 1344;
}
);
unicode = 004B;
},
{
glyphname = L;
lastChange = "2020-03-18 15:36:59 +0000";
layers = (
{
layerId = "4B6FBC9C-F998-43BC-A943-BECCA28E0CA2";
paths = (
{
closed = 1;
nodes = (
"196 1440 LINE",
"196 0 LINE",
"1102 0 LINE",
"1102 160 LINE",
"606 160 LINE SMOOTH",
"516 160 OFFCURVE",
"432 128 OFFCURVE",
"385 76 CURVE SMOOTH",
"362 51 OFFCURVE",
"325 54 OFFCURVE",
"301 76 CURVE SMOOTH",
"276 99 OFFCURVE",
"279 136 OFFCURVE",
"301 160 CURVE SMOOTH",
"354 217 OFFCURVE",
"386 300 OFFCURVE",
"386 380 CURVE SMOOTH",
"386 1440 LINE"
);
}
);
width = 1152;
}
);
unicode = 004C;
},
{
glyphname = M;
lastChange = "2020-03-18 15:37:12 +0000";
layers = (
{
layerId = "4B6FBC9C-F998-43BC-A943-BECCA28E0CA2";
paths = (
{
closed = 1;
nodes = (
"858 0 LINE",
"472 1003 LINE SMOOTH",
"373 1260 OFFCURVE",
"412 1303 OFFCURVE",
"376 1339 CURVE SMOOTH",
"353 1362 OFFCURVE",
"315 1364 OFFCURVE",
"291 1339 CURVE SMOOTH",
"268 1315 OFFCURVE",
"268 1277 OFFCURVE",
"291 1254 CURVE SMOOTH",
"347 1198 OFFCURVE",
"376 1053 OFFCURVE",
"376 833 CURVE SMOOTH",
"376 0 LINE",
"196 0 LINE",
"196 1440 LINE",
"497 1440 LINE",
"771 737 LINE SMOOTH",
"845 548 OFFCURVE",
"884 351 OFFCURVE",
"884 164 CURVE SMOOTH",
"884 132 OFFCURVE",
"911 104 OFFCURVE",
"944 104 CURVE SMOOTH",
"977 104 OFFCURVE",
"1004 132 OFFCURVE",
"1004 164 CURVE SMOOTH",
"1004 351 OFFCURVE",
"1043 548 OFFCURVE",
"1117 737 CURVE SMOOTH",
"1391 1440 LINE",
"1692 1440 LINE",
"1692 0 LINE",
"1512 0 LINE",
"1512 833 LINE SMOOTH",
"1512 1053 OFFCURVE",
"1541 1198 OFFCURVE",
"1597 1254 CURVE SMOOTH",
"1620 1277 OFFCURVE",
"1620 1315 OFFCURVE",
"1597 1339 CURVE SMOOTH",
"1573 1364 OFFCURVE",
"1535 1362 OFFCURVE",
"1512 1339 CURVE SMOOTH",
"1476 1303 OFFCURVE",
"1515 1260 OFFCURVE",
"1416 1003 CURVE SMOOTH",
"1030 0 LINE",
"944 0 LINE"
);
}
);
width = 1888;
}
);
unicode = 004D;
},
{
glyphname = N;
lastChange = "2020-03-18 15:37:26 +0000";
layers = (
{
layerId = "4B6FBC9C-F998-43BC-A943-BECCA28E0CA2";
paths = (
{
closed = 1;
nodes = (
"376 0 LINE",
"376 1372 LINE",
"323 1321 LINE",
"1071 0 LINE",
"1335 0 LINE",
"1335 1440 LINE",
"1155 1440 LINE",
"1155 106 LINE",
"1177 168 LINE",
"457 1440 LINE",
"196 1440 LINE",
"196 0 LINE"
);
}
);
width = 1536;
}
);
unicode = 004E;
},
{
glyphname = O;
lastChange = "2020-03-18 15:37:33 +0000";
layers = (
{
layerId = "4B6FBC9C-F998-43BC-A943-BECCA28E0CA2";
paths = (
{
closed = 1;
nodes = (
"1054 1304 OFFCURVE",
"1229 1083 OFFCURVE",
"1229 721 CURVE SMOOTH",
"1229 358 OFFCURVE",
"1054 137 OFFCURVE",
"767 137 CURVE SMOOTH",
"481 137 OFFCURVE",
"306 358 OFFCURVE",
"306 721 CURVE SMOOTH",
"306 1083 OFFCURVE",
"481 1304 OFFCURVE",
"767 1304 CURVE SMOOTH"
);
},
{
closed = 1;
nodes = (
"370 1464 OFFCURVE",
"110 1170 OFFCURVE",
"110 721 CURVE SMOOTH",
"110 271 OFFCURVE",
"370 -23 OFFCURVE",
"767 -23 CURVE SMOOTH",
"1166 -23 OFFCURVE",
"1426 271 OFFCURVE",
"1425 721 CURVE SMOOTH",
"1425 1170 OFFCURVE",
"1165 1464 OFFCURVE",
"767 1464 CURVE SMOOTH"
);
}
);
width = 1536;
}
);
unicode = 004F;
},
{
glyphname = P;
lastChange = "2020-03-18 15:37:47 +0000";
layers = (
{
layerId = "4B6FBC9C-F998-43BC-A943-BECCA28E0CA2";
paths = (
{
closed = 1;
nodes = (
"386 0 LINE",
"386 1280 LINE",
"644 1280 LINE SMOOTH",
"874 1280 OFFCURVE",
"1002 1227 OFFCURVE",
"1005 1005 CURVE SMOOTH",
"1007 762 OFFCURVE",
"811 727 OFFCURVE",
"644 727 CURVE SMOOTH",
"370 727 LINE",
"364 567 LINE",
"626 567 LINE SMOOTH",
"968 567 OFFCURVE",
"1199 665 OFFCURVE",
"1201 1013 CURVE SMOOTH",
"1203 1314 OFFCURVE",
"1016 1440 OFFCURVE",
"668 1440 CURVE SMOOTH",
"196 1440 LINE",
"196 0 LINE"
);
}
);
width = 1280;
}
);
unicode = 0050;
},
{
glyphname = Q;
lastChange = "2020-03-18 15:38:02 +0000";
layers = (
{
components = (
{
name = O;
transform = "{1, 0, 0, 1, 4, 0}";
}
);
layerId = "4B6FBC9C-F998-43BC-A943-BECCA28E0CA2";
paths = (
{
closed = 1;
nodes = (
"1440 22 LINE",
"949 500 LINE",
"834 386 LINE",
"1328 -97 LINE"
);
}
);
width = 1552;
}
);
unicode = 0051;
},
{
glyphname = R;
lastChange = "2020-03-18 15:38:16 +0000";
layers = (
{
layerId = "4B6FBC9C-F998-43BC-A943-BECCA28E0CA2";
paths = (
{
closed = 1;
nodes = (
"279 1303 OFFCURVE",
"276 1341 OFFCURVE",
"301 1364 CURVE SMOOTH",
"325 1386 OFFCURVE",
"362 1389 OFFCURVE",
"385 1364 CURVE SMOOTH",
"435 1309 OFFCURVE",
"511 1280 OFFCURVE",
"606 1280 CURVE SMOOTH",
"763 1280 OFFCURVE",
"970 1266 OFFCURVE",
"970 1022 CURVE SMOOTH",
"970 781 OFFCURVE",
"737 756 OFFCURVE",
"606 756 CURVE SMOOTH",
"502 756 OFFCURVE",
"427 735 OFFCURVE",
"386 694 CURVE SMOOTH",
"369 677 OFFCURVE",
"341 677 OFFCURVE",
"324 694 CURVE SMOOTH",
"307 711 OFFCURVE",
"307 739 OFFCURVE",
"324 756 CURVE SMOOTH",
"365 797 OFFCURVE",
"386 872 OFFCURVE",
"386 976 CURVE SMOOTH",
"386 1070 LINE SMOOTH",
"386 1149 OFFCURVE",
"357 1221 OFFCURVE",
"301 1280 CURVE SMOOTH"
);
},
{
closed = 1;
nodes = (
"386 480 OFFCURVE",
"365 555 OFFCURVE",
"324 596 CURVE SMOOTH",
"307 613 OFFCURVE",
"307 641 OFFCURVE",
"324 658 CURVE SMOOTH",
"341 675 OFFCURVE",
"369 675 OFFCURVE",
"386 658 CURVE SMOOTH",
"427 617 OFFCURVE",
"502 596 OFFCURVE",
"606 596 CURVE SMOOTH",
"825 596 OFFCURVE",
"880 529 OFFCURVE",
"936 344 CURVE SMOOTH",
"986 178 LINE SMOOTH",
"1004 117 OFFCURVE",
"1023 65 OFFCURVE",
"1048 0 CURVE",
"1255 0 LINE",
"1255 16 LINE",
"1225 70 OFFCURVE",
"1196 141 OFFCURVE",
"1174 212 CURVE SMOOTH",
"1095 463 LINE SMOOTH",
"1046 620 OFFCURVE",
"968 665 OFFCURVE",
"840 681 CURVE",
"1030 714 OFFCURVE",
"1166 840 OFFCURVE",
"1166 1055 CURVE SMOOTH",
"1166 1440 OFFCURVE",
"721 1440 OFFCURVE",
"629 1440 CURVE SMOOTH",
"196 1440 LINE",
"196 0 LINE",
"386 0 LINE",
"386 375 LINE SMOOTH"
);
}
);
width = 1328;
}
);
unicode = 0052;
},
{
glyphname = S;
lastChange = "2020-03-18 15:38:29 +0000";
layers = (
{
layerId = "4B6FBC9C-F998-43BC-A943-BECCA28E0CA2";
paths = (
{
closed = 1;
nodes = (
"966 -24 OFFCURVE",
"1171 143 OFFCURVE",
"1174 387 CURVE SMOOTH",
"1178 679 OFFCURVE",
"892 756 OFFCURVE",
"741 797 CURVE SMOOTH",
"630 827 LINE SMOOTH",
"504 861 OFFCURVE",
"339 910 OFFCURVE",
"339 1077 CURVE SMOOTH",
"339 1238 OFFCURVE",
"492 1304 OFFCURVE",
"637 1304 CURVE SMOOTH",
"825 1304 OFFCURVE",
"955 1193 OFFCURVE",
"957 1005 CURVE",
"1140 1005 LINE",
"1140 1265 OFFCURVE",
"981 1464 OFFCURVE",
"645 1464 CURVE SMOOTH",
"346 1464 OFFCURVE",
"134 1307 OFFCURVE",
"134 1061 CURVE SMOOTH",
"134 795 OFFCURVE",
"376 714 OFFCURVE",
"549 668 CURVE SMOOTH",
"677 634 LINE SMOOTH",
"797 602 OFFCURVE",
"969 551 OFFCURVE",
"969 373 CURVE SMOOTH",
"969 223 OFFCURVE",
"848 136 OFFCURVE",
"656 136 CURVE SMOOTH",
"437 136 OFFCURVE",
"305 249 OFFCURVE",
"303 475 CURVE",
"106 475 LINE",
"109 153 OFFCURVE",
"311 -24 OFFCURVE",
"643 -24 CURVE SMOOTH"
);
}
);
width = 1280;
}
);
unicode = 0053;
},
{
glyphname = T;
lastChange = "2020-03-18 15:38:41 +0000";
layers = (
{
layerId = "4B6FBC9C-F998-43BC-A943-BECCA28E0CA2";
paths = (
{
closed = 1;
nodes = (
"0 1281 LINE",
"283 1281 LINE SMOOTH",
"388 1281 OFFCURVE",
"463 1302 OFFCURVE",
"504 1343 CURVE SMOOTH",
"521 1360 OFFCURVE",
"549 1360 OFFCURVE",
"566 1343 CURVE SMOOTH",
"583 1326 OFFCURVE",
"583 1298 OFFCURVE",
"566 1281 CURVE SMOOTH",
"525 1240 OFFCURVE",
"504 1165 OFFCURVE",
"504 1061 CURVE SMOOTH",
"504 0 LINE",
"694 0 LINE",
"694 1061 LINE SMOOTH",
"694 1165 OFFCURVE",
"673 1240 OFFCURVE",
"632 1281 CURVE SMOOTH",
"615 1298 OFFCURVE",
"615 1326 OFFCURVE",
"632 1343 CURVE SMOOTH",
"649 1360 OFFCURVE",
"678 1359 OFFCURVE",
"694 1343 CURVE SMOOTH",
"735 1302 OFFCURVE",
"810 1281 OFFCURVE",
"913 1281 CURVE SMOOTH",
"1197 1281 LINE",
"1197 1440 LINE",
"0 1440 LINE"
);
}
);
width = 1200;
}
);
unicode = 0054;
},
{
glyphname = U;
lastChange = "2020-03-18 15:38:50 +0000";
layers = (
{
layerId = "4B6FBC9C-F998-43BC-A943-BECCA28E0CA2";
paths = (
{
closed = 1;
nodes = (
"1063 -24 OFFCURVE",
"1241 158 OFFCURVE",
"1241 539 CURVE SMOOTH",
"1241 1436 LINE",
"1051 1436 LINE",
"1051 539 LINE SMOOTH",
"1051 276 OFFCURVE",
"936 136 OFFCURVE",
"706 136 CURVE SMOOTH",
"476 136 OFFCURVE",
"361 276 OFFCURVE",
"361 539 CURVE SMOOTH",
"361 1436 LINE",
"171 1436 LINE",
"171 539 LINE SMOOTH",
"171 158 OFFCURVE",
"349 -24 OFFCURVE",
"706 -24 CURVE SMOOTH"
);
}
);
width = 1408;
}
);
unicode = 0055;
},
{
glyphname = V;
lastChange = "2020-03-18 15:38:59 +0000";
layers = (
{
layerId = "4B6FBC9C-F998-43BC-A943-BECCA28E0CA2";
paths = (
{
closed = 1;
nodes = (
"598 0 LINE",
"816 0 LINE",
"1372 1440 LINE",
"1167 1440 LINE",
"814 478 LINE SMOOTH",
"781 389 OFFCURVE",
"766 265 OFFCURVE",
"766 125 CURVE SMOOTH",
"766 90 OFFCURVE",
"739 65 OFFCURVE",
"707 65 CURVE SMOOTH",
"675 65 OFFCURVE",
"647 93 OFFCURVE",
"647 126 CURVE SMOOTH",
"647 265 OFFCURVE",
"632 392 OFFCURVE",
"601 477 CURVE SMOOTH",
"247 1440 LINE",
"42 1440 LINE"
);
}
);
width = 1408;
}
);
unicode = 0056;
},
{
glyphname = W;
lastChange = "2020-03-18 15:39:08 +0000";
layers = (
{
layerId = "4B6FBC9C-F998-43BC-A943-BECCA28E0CA2";
paths = (
{
closed = 1;
nodes = (
"740 530 LINE SMOOTH",
"721 461 OFFCURVE",
"711 328 OFFCURVE",
"711 145 CURVE SMOOTH",
"711 112 OFFCURVE",
"684 85 OFFCURVE",
"651 85 CURVE SMOOTH",
"618 85 OFFCURVE",
"591 112 OFFCURVE",
"591 145 CURVE SMOOTH",
"591 300 OFFCURVE",
"576 431 OFFCURVE",
"546 526 CURVE SMOOTH",
"248 1440 LINE",
"46 1440 LINE",
"542 0 LINE",
"748 0 LINE",
"993 839 LINE SMOOTH",
"1011 902 OFFCURVE",
"1021 1026 OFFCURVE",
"1021 1200 CURVE SMOOTH",
"1021 1233 OFFCURVE",
"1048 1260 OFFCURVE",
"1081 1260 CURVE SMOOTH",
"1114 1260 OFFCURVE",
"1141 1233 OFFCURVE",
"1141 1200 CURVE SMOOTH",
"1141 1026 OFFCURVE",
"1151 902 OFFCURVE",
"1169 839 CURVE SMOOTH",
"1414 0 LINE",
"1620 0 LINE",
"2116 1440 LINE",
"1914 1440 LINE",
"1616 526 LINE SMOOTH",
"1585 431 OFFCURVE",
"1571 300 OFFCURVE",
"1571 145 CURVE SMOOTH",
"1571 112 OFFCURVE",
"1544 85 OFFCURVE",
"1511 85 CURVE SMOOTH",
"1478 85 OFFCURVE",
"1451 112 OFFCURVE",
"1451 145 CURVE SMOOTH",
"1451 328 OFFCURVE",
"1441 461 OFFCURVE",
"1422 530 CURVE SMOOTH",
"1171 1440 LINE",
"991 1440 LINE"
);
}
);
width = 2160;
}
);
unicode = 0057;
},
{
glyphname = X;
lastChange = "2020-03-18 15:39:17 +0000";
layers = (
{
layerId = "4B6FBC9C-F998-43BC-A943-BECCA28E0CA2";
paths = (
{
closed = 1;
nodes = (
"259 0 LINE",
"649 605 LINE",
"1044 0 LINE",
"1272 0 LINE",
"768 750 LINE",
"1240 1440 LINE",
"1028 1440 LINE",
"661 883 LINE",
"298 1440 LINE",
"68 1440 LINE",
"540 750 LINE",
"42 0 LINE"
);
}
);
width = 1312;
}
);
unicode = 0058;
},
{
glyphname = Y;
lastChange = "2020-03-18 15:39:36 +0000";
layers = (
{
layerId = "4B6FBC9C-F998-43BC-A943-BECCA28E0CA2";
paths = (
{
closed = 1;
nodes = (
"727 0 LINE",
"727 653 LINE",
"711 569 LINE",
"1232 1440 LINE",
"1006 1440 LINE",
"632 760 LINE",
"257 1440 LINE",
"31 1440 LINE",
"552 569 LINE",
"537 653 LINE",
"537 0 LINE"
);
}
);
width = 1264;
}
);
unicode = 0059;
},
{
glyphname = Z;
lastChange = "2020-03-18 15:39:40 +0000";
layers = (
{
layerId = "4B6FBC9C-F998-43BC-A943-BECCA28E0CA2";
paths = (
{
closed = 1;
nodes = (
"1091 0 LINE",
"1091 160 LINE",
"265 160 LINE",
"283 155 LINE",
"1055 1279 LINE",
"1055 1440 LINE",
"98 1440 LINE",
"98 1280 LINE",
"881 1280 LINE",
"845 1282 LINE",
"77 164 LINE",
"77 0 LINE"
);
}
);
width = 1168;
}
);
unicode = 005A;
},
{
glyphname = .notdef;
lastChange = "2020-03-18 12:19:40 +0000";
layers = (
{
layerId = "4B6FBC9C-F998-43BC-A943-BECCA28E0CA2";
paths = (
{
closed = 1;
nodes = (
"232 484 OFFCURVE",
"310 564 OFFCURVE",
"412 564 CURVE SMOOTH",
"511 564 OFFCURVE",
"592 484 OFFCURVE",
"592 386 CURVE SMOOTH",
"592 284 OFFCURVE",
"511 206 OFFCURVE",
"412 206 CURVE SMOOTH",
"310 206 OFFCURVE",
"232 284 OFFCURVE",
"232 386 CURVE SMOOTH"
);
},
{
closed = 1;
nodes = (
"616 820 LINE",
"616 1024 LINE",
"206 1024 LINE",
"206 820 LINE"
);
},
{
closed = 1;
nodes = (
"72 564 LINE",
"42 510 OFFCURVE",
"26 448 OFFCURVE",
"26 386 CURVE SMOOTH",
"26 173 OFFCURVE",
"199 2 OFFCURVE",
"412 2 CURVE SMOOTH",
"622 2 OFFCURVE",
"796 173 OFFCURVE",
"796 386 CURVE SMOOTH",
"796 448 OFFCURVE",
"779 510 OFFCURVE",
"752 564 CURVE",
"822 564 LINE",
"822 768 LINE",
"0 768 LINE",
"0 564 LINE"
);
}
);
width = 822;
}
);
},
{
export = 0;
glyphname = _part.joint.01;
lastChange = "2020-03-18 15:51:28 +0000";
layers = (
{
layerId = "4B6FBC9C-F998-43BC-A943-BECCA28E0CA2";
paths = (
{
closed = 1;
nodes = (
"303 664 OFFCURVE",
"241 688 OFFCURVE",
"204 718 CURVE SMOOTH",
"192 728 OFFCURVE",
"179 740 OFFCURVE",
"160 740 CURVE SMOOTH",
"135 740 OFFCURVE",
"116 722 OFFCURVE",
"116 697 CURVE SMOOTH",
"116 677 OFFCURVE",
"128 664 OFFCURVE",
"138 652 CURVE SMOOTH",
"173 610 OFFCURVE",
"190 543 OFFCURVE",
"190 442 CURVE",
"0 442 LINE",
"0 1046 LINE",
"190 1046 LINE",
"190 945 OFFCURVE",
"173 878 OFFCURVE",
"138 836 CURVE SMOOTH",
"128 824 OFFCURVE",
"116 811 OFFCURVE",
"116 791 CURVE SMOOTH",
"116 766 OFFCURVE",
"135 748 OFFCURVE",
"160 748 CURVE SMOOTH",
"179 748 OFFCURVE",
"192 760 OFFCURVE",
"204 770 CURVE SMOOTH",
"241 800 OFFCURVE",
"303 824 OFFCURVE",
"414 824 CURVE",
"414 664 LINE"
);
},
{
closed = 0;
nodes = (
"335 458 LINE"
);
}
